<svg xmlns="http://www.w3.org/2000/svg" viewBox="0 0 750 500"><g id="freepik--character-2--inject-5"><path d="M453.48,144.14a75.06,75.06,0,0,1-4-12.38,26.39,26.39,0,0,1,.29-12.89c.2-.63,1.91-4.88,2.57-4.85.47,0-.51,3.94-.25,4.34a22.27,22.27,0,0,1,3.25,12.86,58.23,58.23,0,0,1-1.87,12.92" style="fill:#263238"></path><path d="M477.08,193c-6.73.25-22.24-18.22-22.63-24.95l-2.34-40.46c-1-10.85,4.53-20.46,15.4-21.13h1A19.46,19.46,0,0,1,488,124.32c.8,9.41,1.55,19.81,1.51,24.86C489.4,159.64,479,161.3,479,161.3s.08,2.42.22,5.48c.32,6.89,4.37,26-2.51,26.24Z" style="fill:#ffbe9d"></path><path d="M479,161.3a25.25,25.25,0,0,1-13.63-4s3.3,7.85,13.73,6.87Z" style="fill:#eb996e"></path><path d="M485,132.37a1.5,1.5,0,0,1-1.44,1.51,1.42,1.42,0,0,1-1.54-1.34,1.48,1.48,0,0,1,1.43-1.51A1.43,1.43,0,0,1,485,132.37Z" style="fill:#263238"></path><path d="M485.79,128.94c-.19.2-1.32-.63-2.93-.62s-2.78.81-2.95.62.1-.44.61-.82a4.07,4.07,0,0,1,2.37-.73,3.85,3.85,0,0,1,2.32.74C485.71,128.51,485.88,128.86,485.79,128.94Z" style="fill:#263238"></path><path d="M470.26,133a1.49,1.49,0,0,1-1.44,1.51,1.42,1.42,0,0,1-1.54-1.34,1.49,1.49,0,0,1,1.43-1.51A1.42,1.42,0,0,1,470.26,133Z" style="fill:#263238"></path><path d="M470,129.37c-.18.2-1.32-.63-2.92-.62s-2.78.81-3,.62.1-.44.62-.82a4.1,4.1,0,0,1,2.36-.74,4,4,0,0,1,2.33.75C470,128.93,470.13,129.29,470,129.37Z" style="fill:#263238"></path><path d="M475.85,141.69a11.14,11.14,0,0,1,2.61-.48c.41,0,.79-.12.86-.4a2,2,0,0,0-.28-1.22c-.38-1-.79-2-1.22-3.12-1.7-4.44-2.93-8.09-2.75-8.16s1.7,3.48,3.4,7.92l1.17,3.14a2.34,2.34,0,0,1,.22,1.61,1,1,0,0,1-.67.6,2.68,2.68,0,0,1-.7.1A10,10,0,0,1,475.85,141.69Z" style="fill:#263238"></path><path d="M469.88,123.37c-.22.41-1.78,0-3.68-.05s-3.47.27-3.67-.16c-.08-.2.24-.57.9-.9a6.05,6.05,0,0,1,2.82-.57,5.94,5.94,0,0,1,2.78.73C469.68,122.79,470,123.17,469.88,123.37Z" style="fill:#263238"></path><path d="M485.39,125.19c-.32.37-1.64,0-3.21,0s-2.9.3-3.21-.08c-.14-.18.06-.55.64-.91a5.41,5.41,0,0,1,5.18,0C485.35,124.64,485.54,125,485.39,125.19Z" style="fill:#263238"></path><path d="M453,135.36c-.18-.08-7.19-2.1-6.94,5s7.38,5.41,7.38,5.21S453,135.36,453,135.36Z" style="fill:#ffbe9d"></path><path d="M451.16,143s-.13.09-.33.19a1.24,1.24,0,0,1-.93,0,3.06,3.06,0,0,1-1.53-2.71,4.14,4.14,0,0,1,.29-1.79,1.43,1.43,0,0,1,.9-1,.65.65,0,0,1,.75.31c.1.2.06.34.1.36s.15-.13.08-.42a.75.75,0,0,0-.3-.44.93.93,0,0,0-.69-.16,1.74,1.74,0,0,0-1.26,1.16,4.07,4.07,0,0,0-.36,2c.09,1.44.88,2.76,1.92,3a1.29,1.29,0,0,0,1.13-.23C451.15,143.16,451.18,143,451.16,143Z" style="fill:#eb996e"></path><path d="M482.85,112.69c1.13-.69-2.51-4.28-5.41-5.44-4.38-1.76-11-2.66-14.89-1.37-4.71,1.57-8.57,4.11-10.77,8.56a28.08,28.08,0,0,0-2.51,14.48,8.48,8.48,0,0,0,1.2,4.32c1.06,1.53,3,2.44,3,4.63a3,3,0,0,0,.83,2.14c1.37,1.34,2.91,0,3.59-1.38,1.45-2.87,1.47-6.22,1.47-9.43a21.07,21.07,0,0,0-.75-6.77c-.41-1.18-1-2.28-1.35-3.47a4.32,4.32,0,0,1,.34-3.59,4.09,4.09,0,0,1,.56-.61,7.45,7.45,0,0,1,7.33-1.74c4.08,1.25,11,3.07,12.78,1.62a10.94,10.94,0,0,0,3.05-3.38Z" style="fill:#263238"></path><path d="M471.48,142.75c-.1,0-.14.41,0,1a4,4,0,0,0,1.38,2,6.51,6.51,0,0,0,2.14,1.12c.58.18,1,.22,1,.13s-.26-.32-.78-.62a15.5,15.5,0,0,1-1.88-1.21C472,144.19,471.71,142.69,471.48,142.75Z" style="fill:#263238"></path><polygon points="543.43 256.32 493.36 259.69 491.71 243.01 552.31 245.22 543.43 256.32" style="fill:#ffbe9d"></polygon><path d="M579,201.79c0,.06.6,1.21.6,1.21-4,8.54-18.53,39.46-18.53,39.46L542,252.8l-46.71.25-.11-2.52,23.56-10.59,30-.6,14.68-32.63a2.92,2.92,0,0,1,2-1.65Z" style="fill:#455a64"></path><path d="M542,252.8a9.37,9.37,0,0,0,1.16-2c.66-1.23,1.54-2.95,2.48-4.85s1.77-3.65,2.35-4.92a10.57,10.57,0,0,0,.84-2.1,10.27,10.27,0,0,0-1.15,2c-.66,1.23-1.54,2.95-2.48,4.86s-1.78,3.65-2.35,4.92A10.94,10.94,0,0,0,542,252.8Z" style="fill:#263238"></path><polygon points="537.45 248.88 517.47 249.12 532.17 240.59 548.31 240.23 537.45 248.88" style="fill:#263238"></polygon><path d="M495.16,250.53a1.56,1.56,0,0,0,.49,0H497l5.14-.09c4.34-.08,10.33-.12,16.95-.17s12.62-.15,17-.32c2.17-.08,3.93-.16,5.14-.24l1.39-.11a1.78,1.78,0,0,0,.49-.07,3.14,3.14,0,0,0-.49,0l-1.4,0-5.14.09c-4.33.07-10.33.12-17,.17s-12.62.15-17,.31c-2.17.08-3.92.17-5.13.25l-1.4.1A1.65,1.65,0,0,0,495.16,250.53Z" style="fill:#263238"></path><path d="M544.78,251.29a3.76,3.76,0,0,0,.31-.57c.21-.43.48-1,.81-1.69l2.91-6.22,9.41-20.63,7-15.57-.14.12,10.57-2.65,2.94-.77a6.46,6.46,0,0,0,1-.31,6.24,6.24,0,0,0-1.05.19l-3,.66L565,206.33l-.1,0,0,.09L557.78,222l-9.29,20.68c-1.15,2.62-2.08,4.76-2.76,6.3l-.73,1.72A2.67,2.67,0,0,0,544.78,251.29Z" style="fill:#263238"></path><path d="M556.17,239.61s-.87-.79-2.43,1.4-4,8.49-4,8.49l-3,1.52s2.53-3.25,2.47-4.54-2.08-1.2-3.11.69A53.6,53.6,0,0,1,542,252.8s1.19,3.69,1.46,3.52,5.32-.68,5.32-.68l1.36-.71s3.41-.15,3.55-1.08,5.59-5,5.55-5.88-.24-5.35-.24-5.35,2.3-6.38,1.72-7S557.75,233.72,556.17,239.61Z" style="fill:#ffbe9d"></path><path d="M555.8,239.53s.1,0,.25.06a.53.53,0,0,1,.32.51v0c-.18.68-.39,1.74-.61,3s-.46,2.84-.86,4.43a8,8,0,0,1-1.5,2.89l-1.58,2.25a13.52,13.52,0,0,0-1.36,2.15,12.69,12.69,0,0,0,1.64-2l1.67-2.18a13.62,13.62,0,0,0,.93-1.37,6.63,6.63,0,0,0,.67-1.67,38.76,38.76,0,0,0,.8-4.49c.16-1.16.31-2.18.43-3.06v0h0a.65.65,0,0,0-.53-.61C555.88,239.46,555.8,239.51,555.8,239.53Z" style="fill:#eb996e"></path><path d="M557.11,250.33a32.72,32.72,0,0,0,1.87-7.71,16.73,16.73,0,0,0-1.17,3.8A16.18,16.18,0,0,0,557.11,250.33Z" style="fill:#eb996e"></path><path d="M547.44,245.82s.14,0,.37.06a1.28,1.28,0,0,1,.83.28c.24.25.17.72-.06,1.22s-.47,1.11-.71,1.7l-.73,1.67c-.25.5-.53.92-.75,1.3a3.08,3.08,0,0,0-.56,1.29c.07,0,.34-.42.85-1.1a12.1,12.1,0,0,0,.85-1.27c.25-.52.52-1.1.79-1.7s.46-1.16.68-1.73a2.45,2.45,0,0,0,.19-.85,1,1,0,0,0-.31-.77,1.25,1.25,0,0,0-1.08-.23C547.56,245.73,547.43,245.79,547.44,245.82Z" style="fill:#eb996e"></path><path d="M477,438.49,472.2,458.2s18.44,11.43,17.92,15.16l-38.54-7.82,6.13-31Z" style="fill:#455a64"></path><path d="M460.63,454.11a1.59,1.59,0,0,0-1.45,1.57,1.55,1.55,0,0,0,1.54,1.46,1.7,1.7,0,0,0,1.53-1.68,1.6,1.6,0,0,0-1.78-1.33" style="fill:#e0e0e0"></path><g style="opacity:0.6000000000000001"><path d="M451.58,465.54l.74-3.1L489,471.1s1.57,1.09,1.13,2.26Z" style="fill:#fff"></path></g><path d="M472.87,458.13c-.05.18-1,.08-2.05.5s-1.71,1.1-1.86,1,.34-1.14,1.62-1.62S472.94,458,472.87,458.13Z" style="fill:#263238"></path><path d="M476.57,460.62c0,.19-.87.34-1.67,1s-1.16,1.47-1.35,1.42-.08-1.13.93-1.94S476.6,460.44,476.57,460.62Z" style="fill:#263238"></path><path d="M477.88,465.92c-.17,0-.25-1,.45-1.92s1.65-1.16,1.7-1-.61.61-1.17,1.39S478.07,465.94,477.88,465.92Z" style="fill:#263238"></path><path d="M473.45,453.52c-.11.15-.92-.28-2-.43s-2,0-2-.15.87-.69,2.13-.51S473.57,453.39,473.45,453.52Z" style="fill:#263238"></path><path d="M463.79,443.67l0,20.27s20.6,6.78,21,10.53l-39.29,1.45-1.33-31.57Z" style="fill:#455a64"></path><path d="M451.6,462.69a1.61,1.61,0,0,0-1,1.87,1.55,1.55,0,0,0,1.85,1.05,1.7,1.7,0,0,0,1.09-2,1.59,1.59,0,0,0-2-.88" style="fill:#e0e0e0"></path><g style="opacity:0.6000000000000001"><path d="M445.5,475.92v-3.19l37.68-.2s1.78.7,1.62,1.94Z" style="fill:#fff"></path></g><path d="M464.45,463.71c0,.2-1,.32-1.88,1s-1.39,1.48-1.57,1.41.06-1.19,1.19-2S464.48,463.54,464.45,463.71Z" style="fill:#263238"></path><path d="M468.63,465.27c.05.18-.77.54-1.39,1.37s-.78,1.7-1,1.7-.35-1.08.44-2.1S468.62,465.08,468.63,465.27Z" style="fill:#263238"></path><path d="M471.15,470.11c-.17.05-.47-.9,0-2s1.34-1.52,1.43-1.36-.45.74-.81,1.62S471.34,470.09,471.15,470.11Z" style="fill:#263238"></path><path d="M463.93,459.1c-.08.17-1-.06-2.05.06s-1.91.48-2,.32.68-.87,2-1S464,458.94,463.93,459.1Z" style="fill:#263238"></path><path d="M432.85,296.76l.72,16,7.09,62.11s-1.32,30.35-2.19,47.48c-.76,14.88,2.73,40.58,2.73,40.58l25-1.12,5.08-86.46,3.14-53.92L483,296.56Z" style="fill:#263238"></path><polygon points="500.12 296.59 497.93 383.73 475.56 449.95 474.57 453.92 459.47 450.98 463.67 296.47 500.12 296.59" style="fill:#263238"></polygon><path d="M474.39,322.07s0,.12,0,.36,0,.61,0,1.06c0,1,0,2.33.05,4.08.06,3.54,0,8.67,0,15-.18,12.67-.81,30.17-2.14,49.46s-2.91,36.74-4.09,49.35c-.6,6.29-1.09,11.39-1.43,14.94-.18,1.74-.32,3.11-.42,4.06l-.12,1.05a2.52,2.52,0,0,1-.05.36,1.39,1.39,0,0,1,0-.36c0-.26,0-.61.07-1.06.08-.95.18-2.32.32-4.07.31-3.55.75-8.65,1.29-14.95,1.1-12.62,2.66-30.06,3.95-49.35s2-36.77,2.28-49.44c.12-6.33.19-11.46.19-15,0-1.75,0-3.12,0-4.08,0-.45,0-.8,0-1.06A1.65,1.65,0,0,1,474.39,322.07Z" style="fill:#455a64"></path><path d="M451.79,297.5a3.06,3.06,0,0,1-.06.92,13.65,13.65,0,0,1-.6,2.45,16,16,0,0,1-12,10.56,14.13,14.13,0,0,1-2.5.29,3.27,3.27,0,0,1-.93-.06c0-.09,1.32-.06,3.36-.55a16.63,16.63,0,0,0,11.77-10.35C451.56,298.79,451.7,297.48,451.79,297.5Z" style="fill:#455a64"></path><path d="M475,300.25a1.29,1.29,0,0,1-2.57.12,1.29,1.29,0,1,1,2.57-.12Z" style="fill:#455a64"></path><path d="M497.52,311.41a8.35,8.35,0,0,1-1.84-1.58,19.93,19.93,0,0,1-5.19-10.33,8.29,8.29,0,0,1-.17-2.41c.08,0,.17.91.49,2.35a24.24,24.24,0,0,0,1.92,5.41,23.94,23.94,0,0,0,3.2,4.76C496.89,310.73,497.57,311.35,497.52,311.41Z" style="fill:#455a64"></path><path d="M474.9,172.2l-21.57-16.57-4.08,6.91s-17.53,14.1-20.8,18l7.24,60.11s-3.42,31.94-3.62,34.46S430,299.65,430,299.65c-.18,4.16,3.46,9,4.16,9,0,0,3.31-4.35,7.08-4.2s29.54,5.87,29.54,5.87l30.63-8.26-6-60.8-2.93-40.74-3.4-15.48-6.38-5.81-3.36-10.16s-.85,12.88-1,12.42S474.9,172.2,474.9,172.2Z" style="fill:#00D4F5"></path><path d="M449.86,163.59a7.73,7.73,0,0,0,.88,1.1c.6.67,1.49,1.63,2.62,2.78,2.26,2.32,5.55,5.34,9.11,8.72,1.76,1.68,3.41,3.31,4.86,4.84l.17.18.17-.18c2.19-2.39,3.75-4.66,5-6.16l1.41-1.76a4.06,4.06,0,0,0,.49-.64,3,3,0,0,0-.6.54c-.37.37-.89.94-1.52,1.68-1.27,1.46-2.89,3.69-5.08,6h.34c-1.44-1.55-3.08-3.2-4.85-4.88-3.58-3.4-6.89-6.37-9.21-8.61-1.16-1.11-2.09-2-2.73-2.67A8.07,8.07,0,0,0,449.86,163.59Z" style="fill:#263238"></path><path d="M489.91,271.71s0-.08,0-.23,0-.42,0-.69c-.07-.65-.16-1.53-.27-2.65-.26-2.34-.62-5.64-1.07-9.71-.94-8.2-2.28-19.52-3.84-32s-3.05-23.81-4.24-32c-.58-4.09-1.1-7.39-1.48-9.66-.21-1.11-.37-2-.48-2.62l-.14-.68a1,1,0,0,0-.06-.22.58.58,0,0,0,0,.23c0,.19.05.41.09.69.09.64.22,1.52.38,2.63.32,2.33.78,5.62,1.33,9.67,1.09,8.18,2.53,19.49,4.09,32s3,23.77,4,32c.52,4.06.94,7.36,1.24,9.69q.23,1.68.36,2.64l.1.68A.79.79,0,0,0,489.91,271.71Z" style="fill:#263238"></path><g style="opacity:0.30000000000000004"><path d="M496,246.91c-2.3,1.28-5,1.81-7.23,3.17a25.69,25.69,0,0,0-4.33,3.61c-9.48,8.93-21.61,15.58-34.61,16.39-4.47.28-9.27-.25-12.73-3.08-1.9-1.56-3.32-4.06-2.72-6.44.73-2.91,3.93-4.33,6.74-5.35l26.29-9.52a120.82,120.82,0,0,1,16.87-5.2A61.23,61.23,0,0,1,496,239.26"></path></g><path d="M468.06,285.42c.08.12,6.35-3.64,14-8.4s13.83-8.7,13.76-8.82-6.35,3.64-14,8.4S468,285.3,468.06,285.42Z" style="fill:#263238"></path><path d="M489.38,305.37a6.56,6.56,0,0,0-.09-1.26c-.09-.9-.2-2-.34-3.4-.26-2.87-.46-6.85-.6-11.26s-.31-8.39-.45-11.28c-.07-1.37-.14-2.51-.19-3.42a5.92,5.92,0,0,0-.14-1.25,6.58,6.58,0,0,0-.05,1.26c0,.91,0,2.05,0,3.42.05,2.89.15,6.88.3,11.29s.4,8.4.75,11.28c.17,1.44.35,2.59.49,3.39A6.17,6.17,0,0,0,489.38,305.37Z" style="fill:#263238"></path><g style="opacity:0.30000000000000004"><path d="M456.46,237.35c-2.63-8.53-2.86-18.45-3-27.31-1.31,6.15-2.67,15.53-3.69,22l2.8,6Z"></path></g><g style="opacity:0.30000000000000004"><path d="M478.28,181.5a4,4,0,0,1-1-.7c-.93-1.22-1.48-2.7-2.39-3.93a70.3,70.3,0,0,0-6.45,7.45c-3.25-3.1-6.51-6.21-9.48-9.59a77.74,77.74,0,0,1-6.52-8.6l15.11,14.74,7.4-8.67Z"></path></g><path d="M479,173.54a20.25,20.25,0,0,0,1.52,3.22,7.06,7.06,0,0,0,2.19,2.83c.09-.08-.87-1.32-1.76-3.06A10.17,10.17,0,0,0,479,173.54Z" style="fill:#263238"></path><path d="M457.27,185a4,4,0,0,0-.54-.91,16.4,16.4,0,0,0-1.89-2.18,33.4,33.4,0,0,0-3.25-2.78,14.85,14.85,0,0,0-4.54-2.65,12.54,12.54,0,0,0-5.26-.3,35.25,35.25,0,0,0-4.19.83c-1.18.28-2.14.51-2.79.68a3.7,3.7,0,0,0-1,.32,4.94,4.94,0,0,0,1.05-.13c.67-.11,1.63-.29,2.82-.52s2.59-.57,4.17-.72a12.55,12.55,0,0,1,5.06.32,15.17,15.17,0,0,1,4.42,2.54,41.33,41.33,0,0,1,3.28,2.66C456.38,183.83,457.2,185.09,457.27,185Z" style="fill:#263238"></path><path d="M488.32,232.17l-.12,12.17s-17.63,9.23-29.28,12.79-25.53,3.71-25.53,3.71l4.06-19.95Z" style="fill:#ffbe9d"></path><path d="M523.26,233.09a2.56,2.56,0,0,0-1.43-2.42c-1.6-.9-5-2.89-5-2.89l-10-.45-18.55,4.84-.12,12.17s9.56.1,11.77-.08,8.29-2.43,8.29-2.43,10.41.85,10.87.25,1.1-1.28.42-1.66-8.73-2.08-8.73-2.08l5.32-.65s7.88,1.29,8.44,1,1.26-1.29.73-2l-.52-.71a1.67,1.67,0,0,0-.92-2l-.75-.21Z" style="fill:#ffbe9d"></path><path d="M509.08,233.58a6.51,6.51,0,0,0,2.41.29,24.86,24.86,0,0,1,5.75.24,30.38,30.38,0,0,1,3,1.11,23.19,23.19,0,0,0,2.51.79,8.44,8.44,0,0,0,2.4.37,22.72,22.72,0,0,0-2.31-.69c-.7-.22-1.54-.51-2.45-.88a24.58,24.58,0,0,0-3-1.15,11.63,11.63,0,0,0-3.25-.28c-1,0-1.87.13-2.61.16C510,233.63,509.1,233.51,509.08,233.58Z" style="fill:#eb996e"></path><path d="M509.82,230.75a5.17,5.17,0,0,0,2.16.18,11.49,11.49,0,0,1,5,.42c1.89.7,3.6,1.37,4.85,1.81a9.81,9.81,0,0,0,2.06.62,9.4,9.4,0,0,0-1.93-.93c-1.23-.52-2.91-1.24-4.83-1.94a7.83,7.83,0,0,0-2.87-.5,22.85,22.85,0,0,0-2.33.19C510.64,230.75,509.83,230.68,509.82,230.75Z" style="fill:#eb996e"></path><path d="M428.45,180.55s-5,8.76-5.61,12.95-.75,48.09.11,48.88a22.1,22.1,0,0,0,2.37,1.77s-4.73,1.25-3.16,3.68a44.28,44.28,0,0,0,3.1,4.23s1.08,8.06,2,8.23,6.07,2.8,6.07,2.8,14.19-8.49,15.31-12.71,3.88-12.65,3.88-12.65l-2.76-5.7,5.89-35.64s3.51-11.47-3.92-15.77S431,175.77,428.45,180.55Z" style="fill:#00D4F5"></path><path d="M454.52,203.15a2.21,2.21,0,0,0-.13.54c-.07.39-.17.91-.3,1.57-.24,1.41-.6,3.4-1,5.91L449.52,232v.07l0,.07,2.74,5.7v-.18c-1.25,4-2.56,8.41-4,12.86l-.24.57-.36.53a7.62,7.62,0,0,1-.8,1,11.21,11.21,0,0,1-.89.93c-.3.31-.62.6-.94.88-1.27,1.15-2.61,2.18-3.95,3.17-2.68,2-5.36,3.72-7.93,5.3h.22c-1.29-.65-2.56-1.27-3.8-1.85-.63-.28-1.23-.56-1.87-.8l-.24-.09-.22-.06a.93.93,0,0,1-.19-.27,6.45,6.45,0,0,1-.32-.87,58.38,58.38,0,0,1-1.34-6.91V252l0,0c-.78-.92-1.47-1.84-2.1-2.71-.31-.44-.61-.87-.88-1.28a4.19,4.19,0,0,1-.34-.61,1.52,1.52,0,0,1-.08-.63,2.75,2.75,0,0,1,1.54-1.72,9,9,0,0,1,1.81-.76l.18,0-.15-.1c-.83-.53-1.43-1-1.83-1.26a7.16,7.16,0,0,0-.59-.44l.13.14a4.54,4.54,0,0,0,.41.37,21.27,21.27,0,0,0,1.79,1.33l0-.15a8.89,8.89,0,0,0-1.88.73,5.53,5.53,0,0,0-1,.68,2.1,2.1,0,0,0-.69,1.19,1.78,1.78,0,0,0,.08.76,4.87,4.87,0,0,0,.36.68q.4.63.87,1.29c.62.89,1.3,1.82,2.09,2.77l0-.09a56,56,0,0,0,1.28,7,5.91,5.91,0,0,0,.34.94,1,1,0,0,0,.41.48,2.15,2.15,0,0,0,.25.08l.23.08c.6.23,1.21.51,1.82.8,1.23.58,2.5,1.21,3.78,1.86l.12.06.11-.07c2.59-1.58,5.28-3.32,8-5.3a48.88,48.88,0,0,0,4-3.19c.33-.28.65-.57,1-.89s.63-.61.92-1a7.83,7.83,0,0,0,.83-1.05c.13-.19.26-.37.39-.57l.28-.65c1.42-4.5,2.71-8.84,4-12.87l0-.09,0-.09c-.95-2-1.88-3.88-2.76-5.69l0,.13c1.37-8.5,2.53-15.71,3.35-20.84l.92-5.94c.09-.66.17-1.19.22-1.58A3.62,3.62,0,0,0,454.52,203.15Z" style="fill:#263238"></path><path d="M425.08,244a2.2,2.2,0,0,0,.75.27,7,7,0,0,0,2.18.23,3.6,3.6,0,0,0,1.48-.45,10.86,10.86,0,0,0,1.47-.93c1-.72,2-1.58,3.08-2.41,2.19-1.67,4.26-3.09,5.74-4.14a17.09,17.09,0,0,0,2.36-1.77,15.9,15.9,0,0,0-2.55,1.47c-1.54,1-3.65,2.36-5.86,4-1.11.84-2.11,1.72-3.05,2.44a5.81,5.81,0,0,1-2.71,1.39,8,8,0,0,1-2.1-.06A2.74,2.74,0,0,0,425.08,244Z" style="fill:#263238"></path><path d="M425.26,252.06a2.6,2.6,0,0,0,.94.17,5,5,0,0,0,2.54-.58,42.58,42.58,0,0,0,7-4.86,66.62,66.62,0,0,0,6.06-6c.73-.8,1.31-1.46,1.7-1.92a3.87,3.87,0,0,0,.58-.76,25.44,25.44,0,0,0-2.54,2.44c-1.52,1.54-3.62,3.67-6.12,5.82a52.91,52.91,0,0,1-6.83,4.93,5.45,5.45,0,0,1-2.38.7A5.41,5.41,0,0,0,425.26,252.06Z" style="fill:#263238"></path><g style="opacity:0.30000000000000004"><path d="M441.94,235a17.21,17.21,0,0,1-3.34,3.89l-6,5.67c-1.14,1.09-2.49,2.25-4,2.1a5.22,5.22,0,0,1-2.21-.91c-.62-.39-1.31-1-1.17-1.7a6.09,6.09,0,0,0,5.24-.8,16.25,16.25,0,0,0,1.82-1.61,47.21,47.21,0,0,1,9.62-6.52"></path></g><path d="M487.33,244.46a6.66,6.66,0,0,0,1.23.09l3.34,0,5,0h2.94a7.85,7.85,0,0,0,1.56-.33l1.54-.44c2.13-.63,4.14-1.27,5.95-1.85h-.08c2.76.12,5.11.22,6.76.26l1.93,0a2.19,2.19,0,0,0,.69,0,3,3,0,0,0-.68-.11l-1.92-.16c-1.66-.13-4-.29-6.75-.45h0l0,0-6,1.8-1.53.45a7.88,7.88,0,0,1-1.46.32l-2.93,0-5,.09-3.35.1A5.44,5.44,0,0,0,487.33,244.46Z" style="fill:#eb996e"></path></g><g id="freepik--character-1--inject-5"><rect x="210.11" y="58.38" width="176.08" height="417.54" rx="20.91" style="fill:#263238"></rect><rect x="195.87" y="58.55" width="176.08" height="417.54" rx="22.55" style="fill:#455a64"></rect><path d="M345.4,65.21l-23.92,0c-3.21,0-5.81,3.21-5.8,7.19v5.14c0,4-2.6,7.19-5.81,7.18l-46.63-.06c-3.2,0-5.81-3.23-5.81-7.21V72.28c0-4-2.6-7.2-5.81-7.2H243.2l-20.93,0c-10.4,0-18.83,10-18.82,22.28l.16,357.7c0,12.31,8.44,22.3,18.83,22.32l123.14.17c10.39,0,18.82-10,18.81-22.28l-.16-357.7C364.22,75.22,355.8,65.23,345.4,65.21Z" style="fill:#fff"></path><path d="M345.4,65.21l.73,0a11.68,11.68,0,0,1,2.15.23A17.33,17.33,0,0,1,355.93,69a22.61,22.61,0,0,1,4.22,4.6,23.6,23.6,0,0,1,3.16,6.84,25.44,25.44,0,0,1,.82,4.17,39.75,39.75,0,0,1,.19,4.55q0,4.71,0,10c0,28.32.08,69.29.13,119.91s.09,110.92.14,177.85q0,12.55,0,25.41,0,6.42,0,12.92v6.52a53.59,53.59,0,0,1-.2,6.57,23.94,23.94,0,0,1-1.6,6.44,21.91,21.91,0,0,1-3.3,5.79,20.5,20.5,0,0,1-4.94,4.53,16.78,16.78,0,0,1-6.29,2.42,43.64,43.64,0,0,1-6.75.25h-6.75l-13.6,0-55.55-.07-28.41,0-14.35,0a17.27,17.27,0,0,1-7.11-1.45,18.77,18.77,0,0,1-5.94-4.2,23.72,23.72,0,0,1-6.18-13,46.09,46.09,0,0,1-.32-7.22V434.6q0-14.31,0-28.42,0-28.21,0-55.57c0-36.42,0-71.56,0-105s0-65.28,0-95V87.15c.06-6.65,2.61-13.24,7.36-17.57a17.49,17.49,0,0,1,8.28-4.35,13.93,13.93,0,0,1,2.31-.31c.78-.06,1.54-.07,2.3-.06h4.55l17.58,0h4.25c.71,0,1.39,0,2.11,0a5.16,5.16,0,0,1,2,.62,6.66,6.66,0,0,1,2.77,3.1,9.15,9.15,0,0,1,.78,4v4a9.39,9.39,0,0,0,.56,3.81,6.58,6.58,0,0,0,2.21,3,4.73,4.73,0,0,0,1.65.82,6.26,6.26,0,0,0,1.84.18l28,.06,12.36,0H310a5.39,5.39,0,0,0,4.37-2.69A8.51,8.51,0,0,0,315.58,77c0-1.67,0-3.29,0-4.86a8.35,8.35,0,0,1,1.29-4.35,5.93,5.93,0,0,1,3.35-2.55,7.7,7.7,0,0,1,2-.15h5.54l6.25,0,8.47,0,2.89,0-2.89,0H322.25a7.71,7.71,0,0,0-2,.15A5.81,5.81,0,0,0,317,67.9a8.24,8.24,0,0,0-1.26,4.26V77a8.6,8.6,0,0,1-1.25,5A5.59,5.59,0,0,1,310,84.79H291.87l-28,0a7,7,0,0,1-1.92-.18,5.52,5.52,0,0,1-1.75-.87,6.91,6.91,0,0,1-2.31-3.14,9.62,9.62,0,0,1-.59-3.91c0-1.32,0-2.65,0-4a8.65,8.65,0,0,0-.75-3.88,6.44,6.44,0,0,0-2.63-3,4.93,4.93,0,0,0-1.91-.58c-.67,0-1.39,0-2.09,0h-4.25l-17.58,0h-4.55a21.7,21.7,0,0,0-2.28.06,12.39,12.39,0,0,0-2.26.3,17.12,17.12,0,0,0-8.1,4.27c-4.66,4.25-7.17,10.75-7.22,17.3s0,13.39,0,20.3q0,20.73,0,43.07c0,29.77.05,61.58.07,95s0,68.61.06,105q0,27.33,0,55.57,0,14.1,0,28.42v7.16a45.86,45.86,0,0,0,.31,7.14,23.2,23.2,0,0,0,6,12.69,18.44,18.44,0,0,0,5.77,4.09,16.87,16.87,0,0,0,6.9,1.4l14.35,0,28.42,0,55.54.08,13.6,0h6.75a42,42,0,0,0,6.66-.24,16.38,16.38,0,0,0,6.11-2.34,19.86,19.86,0,0,0,4.81-4.42,21.16,21.16,0,0,0,3.24-5.67,23.66,23.66,0,0,0,1.57-6.3,56.6,56.6,0,0,0,.2-6.52q0-3.27,0-6.52V422.32q0-12.85,0-25.41c0-66.93,0-127.22,0-177.84s0-91.6,0-119.92q0-5.31,0-10A39.25,39.25,0,0,0,364,84.6a25.42,25.42,0,0,0-.8-4.15,23,23,0,0,0-3.12-6.8,22.21,22.21,0,0,0-4.18-4.6,17.43,17.43,0,0,0-7.59-3.52,13.2,13.2,0,0,0-2.14-.26Z" style="fill:#263238"></path><polygon points="245.31 430.13 242.68 469.04 259.47 471.1 267.51 431.37 245.31 430.13" style="fill:#aa6550"></polygon><path d="M242.89,463.9l-.16,1.11s-19.92,5.06-20.6,8.62l37.56,4.84,1.1-12.56A21.69,21.69,0,0,1,242.89,463.9Z" style="fill:#00D4F5"></path><path d="M256.47,469.41a1.56,1.56,0,0,1,.84,1.89,1.48,1.48,0,0,1-1.86.84,1.63,1.63,0,0,1-.88-2,1.55,1.55,0,0,1,2-.66" style="fill:#fff"></path><path d="M259.69,478.47l.27-3-36.1-3.53s-1.77.51-1.73,1.71Z" style="fill:#fff"></path><path d="M242.59,465.1c0,.19.89.39,1.71,1.09s1.21,1.54,1.39,1.49,0-1.14-1-2S242.57,464.93,242.59,465.1Z" style="fill:#263238"></path><path d="M238.44,466.22c-.07.18.69.59,1.21,1.45s.6,1.7.78,1.71.43-1-.24-2.06S238.46,466.05,238.44,466.22Z" style="fill:#263238"></path><path d="M235.59,470.65c.16.06.54-.82.19-1.89s-1.14-1.57-1.24-1.43.36.75.63,1.63S235.41,470.61,235.59,470.65Z" style="fill:#263238"></path><path d="M313.14,116.93c.41-2.69,2.83-4.75,5.47-5.4a14.11,14.11,0,0,1,8,.81,19.22,19.22,0,0,1,7.7,4.78,11.61,11.61,0,0,1,3.25,8.3c-.16,2.85-1.58,5.72-.78,8.46.6,2.09,2.36,3.61,4.13,4.87s3.69,2.44,4.88,4.25,1.39,4.52-.22,6c-1.43,1.3-4,1.45-4.6,3.28-.38,1.14.26,2.33.61,3.48a9.08,9.08,0,0,1-1.17,7.28,15.41,15.41,0,0,1-5.58,5c-3.87,2.18-8.7,3.2-12.79,1.46a12.36,12.36,0,0,1-5-4.14,19.46,19.46,0,0,1-3.33-10.31,58.2,58.2,0,0,1,.71-10.94" style="fill:#263238"></path><path d="M311.72,160.41A11.25,11.25,0,0,0,326,149.3c-.07-3.26-1.54-6.58-.53-9.68.7-2.13,2.48-3.79,3.08-6,.89-3.23-1.06-6.48-2.92-9.26a21.43,21.43,0,0,0-4.07-5,7.33,7.33,0,0,0-6-1.76" style="fill:#263238"></path><path d="M281.64,118c.18,2.46-1.45,4.66-3.09,6.51s-3.46,3.77-3.81,6.22c-.63,4.33,3.61,8.35,2.73,12.64-.46,2.29-2.35,4.14-2.68,6.46s.88,4.44,2.37,6.15,3.31,3.14,4.63,5c0,0,2.74,4.51,11.2,1.62" style="fill:#263238"></path><path d="M319.48,121.75c.07-2.24-2-4-4.08-4.78s-4.39-1.13-6.24-2.37c-1.64-1.11-2.74-2.83-4.13-4.24a13.75,13.75,0,0,0-23.13,6.31c-.8,3.18-.26,6.94,2.25,9.06,2.91,2.45,7.23,1.9,11,1.14s7.95-1.52,11.06.67c1.88,1.32,3,3.47,4.11,5.46s2.58,4,4.75,4.76,5.12-.54,5.2-2.83" style="fill:#263238"></path><path d="M310.68,122.21A3.72,3.72,0,0,1,314,126h0l-2.23,50.47c-.09,6-8.8,9.31-15.19,9.16h0c-6.44-.15-6.65-3.31-6.73-9-.13-9.47-.12-13-.13-13s-8.14-1.37-9.8-12c-.83-5.29-.54-14-.08-21,.42-6.38,4.66-14.19,11-13.5Z" style="fill:#aa6550"></path><path d="M281.73,137.64A1.36,1.36,0,0,0,283,139a1.31,1.31,0,0,0,1.41-1.23,1.35,1.35,0,0,0-1.31-1.37A1.3,1.3,0,0,0,281.73,137.64Z" style="fill:#263238"></path><path d="M281.38,134c.17.18,1.2-.58,2.67-.58s2.54.75,2.7.57-.1-.4-.56-.74a3.72,3.72,0,0,0-4.29,0C281.45,133.61,281.3,133.93,281.38,134Z" style="fill:#263238"></path><path d="M295.35,137.9a1.36,1.36,0,0,0,1.31,1.38,1.31,1.31,0,0,0,1.41-1.23,1.37,1.37,0,0,0-1.31-1.38A1.31,1.31,0,0,0,295.35,137.9Z" style="fill:#263238"></path><path d="M296.13,134.74c.17.18,1.21-.59,2.67-.58s2.54.74,2.7.56-.09-.4-.56-.74a3.77,3.77,0,0,0-2.16-.67,3.64,3.64,0,0,0-2.13.68C296.2,134.34,296.05,134.66,296.13,134.74Z" style="fill:#263238"></path><path d="M290.79,146.33a9.23,9.23,0,0,0-2.38-.44c-.38,0-.73-.11-.8-.37a1.93,1.93,0,0,1,.26-1.11l1.11-2.85c1.55-4.05,2.67-7.39,2.5-7.45s-1.55,3.18-3.09,7.23c-.38,1-.73,2-1.07,2.87a2.19,2.19,0,0,0-.2,1.47,1,1,0,0,0,.62.55,2.64,2.64,0,0,0,.63.09A10.06,10.06,0,0,0,290.79,146.33Z" style="fill:#263238"></path><path d="M289.73,163.68A27.08,27.08,0,0,0,304,159.91s-3.6,7.3-14.24,6.28Z" style="fill:#724940"></path><path d="M295.49,131.17c.14.4,1.61.21,3.33.42s3.11.69,3.34.33c.1-.17-.14-.55-.7-.93a5.47,5.47,0,0,0-2.48-.87,5.4,5.4,0,0,0-2.6.3C295.75,130.67,295.43,131,295.49,131.17Z" style="fill:#263238"></path><path d="M281.6,130.76c.29.33,1.44,0,2.81,0s2.55.23,2.82-.12c.11-.17-.07-.5-.58-.82a4.27,4.27,0,0,0-2.29-.55,4.19,4.19,0,0,0-2.24.66C281.63,130.25,281.47,130.6,281.6,130.76Z" style="fill:#263238"></path><path d="M318.1,157.16a9.44,9.44,0,0,1-11.23-10.43c.33-2.61,1.74-5.27.83-7.74-1.19-3.26-5.77-4.27-7-7.52-.71-1.9-.08-4.11-.88-6s-2.59-2.75-4.37-3.4-3.71-1.09-5.21-2.26-2.43-3.36-1.47-5A100.83,100.83,0,0,1,312,120.48c1.74.65,3.56,1.43,4.58,3s1,3.74.94,5.69q-.66,14.31-1.33,28.62" style="fill:#263238"></path><path d="M323.71,122.64a.87.87,0,0,1,.18.43,1.65,1.65,0,0,1-.41,1.28,2.67,2.67,0,0,1-1.9,1,6.22,6.22,0,0,1-2.7-.8,7.5,7.5,0,0,0-3.1-.92,16.6,16.6,0,0,0-3.75.34,25.14,25.14,0,0,1-4.24.55,6.11,6.11,0,0,1-4.35-1.59,12.82,12.82,0,0,1-2.51-3.88,20.1,20.1,0,0,0-2-3.65,6,6,0,0,0-6.14-2.24,6.26,6.26,0,0,0-3.7,2.74,14.75,14.75,0,0,0-.77,1.57s0-.16.08-.45a5.55,5.55,0,0,1,.51-1.23,6.21,6.21,0,0,1,10.41-.7,19,19,0,0,1,2.12,3.72,12.43,12.43,0,0,0,2.4,3.72,5.61,5.61,0,0,0,4,1.45,25.57,25.57,0,0,0,4.16-.51,16.12,16.12,0,0,1,3.87-.29,7.68,7.68,0,0,1,3.24,1,5.91,5.91,0,0,0,2.51.84,2.46,2.46,0,0,0,1.74-.79,1.55,1.55,0,0,0,.47-1.12C323.76,122.8,323.68,122.65,323.71,122.64Z" style="fill:#455a64"></path><path d="M324.91,123.65c-.14.12-1.77-2.59-5-4.43a20.85,20.85,0,0,0-6.36-2.11,5,5,0,0,1,2,0,13.24,13.24,0,0,1,4.62,1.61,12.92,12.92,0,0,1,3.71,3.18A5.13,5.13,0,0,1,324.91,123.65Z" style="fill:#455a64"></path><path d="M313,116.56s0,.12-.15.31a3.06,3.06,0,0,1-.68.72,4.64,4.64,0,0,1-3.52.79,8.88,8.88,0,0,1-4.6-2.75c-1.44-1.4-2.77-3.2-4.72-4.31a8.38,8.38,0,0,0-6.1-.78A8.11,8.11,0,0,0,289,113.3a8.88,8.88,0,0,0-1.62,3.09c-.23.81-.27,1.27-.32,1.27s0-.12,0-.34a6.11,6.11,0,0,1,.14-1,8.12,8.12,0,0,1,1.52-3.27,8.21,8.21,0,0,1,4.43-3,8.72,8.72,0,0,1,6.49.79c2.09,1.2,3.42,3.05,4.82,4.43A8.62,8.62,0,0,0,308.7,118a4.6,4.6,0,0,0,3.33-.58A6.45,6.45,0,0,0,313,116.56Z" style="fill:#455a64"></path><path d="M312.49,161.72a1.4,1.4,0,0,0,.47.13,8.22,8.22,0,0,0,1.4.14,10.81,10.81,0,0,0,5-1.13,11.62,11.62,0,0,0,5.35-5.41,13.38,13.38,0,0,0,.91-9.26,27.69,27.69,0,0,1-.94-4.66,7.32,7.32,0,0,1,1.06-4.12,15.36,15.36,0,0,0,1.64-3.77,8.82,8.82,0,0,0,.1-3.6,9.46,9.46,0,0,0-2.19-4.66,7.6,7.6,0,0,0-1-1c-.26-.19-.4-.28-.41-.26s.5.45,1.24,1.39a9.72,9.72,0,0,1,1.94,4.57,8.32,8.32,0,0,1-.17,3.41,14.75,14.75,0,0,1-1.65,3.61,11,11,0,0,0-.89,2.07,7.17,7.17,0,0,0-.26,2.36,26.12,26.12,0,0,0,.93,4.77,12.94,12.94,0,0,1-.81,8.86,11.28,11.28,0,0,1-5,5.27,11.41,11.41,0,0,1-4.83,1.29C313.16,161.78,312.5,161.66,312.49,161.72Z" style="fill:#455a64"></path><path d="M331.31,114.67a3.5,3.5,0,0,0-1.81-.94,7.26,7.26,0,0,0-4.92.38,7.17,7.17,0,0,0-3.49,3.48,3.43,3.43,0,0,0-.47,2c.1,0,.26-.74.86-1.79a7.36,7.36,0,0,1,7.92-3.63C330.58,114.39,331.26,114.76,331.31,114.67Z" style="fill:#455a64"></path><path d="M323.46,121.38a6.89,6.89,0,0,0,0-.7,3.55,3.55,0,0,1,.47-1.86,5.11,5.11,0,0,1,2.2-2.07,4.6,4.6,0,0,1,3.89-.1,7.15,7.15,0,0,1,3.47,3.33,10.55,10.55,0,0,1,1.08,5.5,36.65,36.65,0,0,1-1,6.3,26.89,26.89,0,0,0-.82,6.92,21.22,21.22,0,0,0,1.8,6.75,57.77,57.77,0,0,1,2.31,6,13.13,13.13,0,0,1,.48,5.64,16.81,16.81,0,0,1-1.47,4.76,37.85,37.85,0,0,1-3.9,6.17c-.48.65-.88,1.17-1.19,1.6s-.41.56-.39.58a4,4,0,0,0,.49-.5c.3-.35.74-.86,1.29-1.53a34.41,34.41,0,0,0,4.1-6.13,16.69,16.69,0,0,0,1.59-4.87,13.39,13.39,0,0,0-.44-5.88,56.2,56.2,0,0,0-2.29-6,20.49,20.49,0,0,1-1.75-6.55c-.19-4.66,1.7-9,1.77-13.17a11.17,11.17,0,0,0-1.21-5.77,7.51,7.51,0,0,0-3.77-3.49,4.93,4.93,0,0,0-4.21.2,5.23,5.23,0,0,0-2.26,2.27,3.5,3.5,0,0,0-.38,2A2.25,2.25,0,0,0,323.46,121.38Z" style="fill:#455a64"></path><path d="M291.34,149.89a7.19,7.19,0,0,0,.91,1.79,2.38,2.38,0,0,0,1.69,1,2.13,2.13,0,0,0,1.81-1,3.43,3.43,0,0,0,.5-2.05c0-.65-.32-1.42-1-1.5a1.67,1.67,0,0,0-.78.17l-3.38,1.38" style="fill:#724940"></path><path d="M292.69,152.67a4.64,4.64,0,0,0,1.8-.22,2.59,2.59,0,0,0,1.37-1.24,2.63,2.63,0,0,0-.25-2.71c-.14-.14-.11-.14-.26-.12a5.14,5.14,0,0,0-.54.22l-.56.22c-.72.29-1.37.55-1.93.76a6,6,0,0,1-1.84.55,6.25,6.25,0,0,1,1.68-.95c.53-.25,1.16-.55,1.88-.87l.54-.24a5.54,5.54,0,0,1,.62-.26.73.73,0,0,1,.5,0,.87.87,0,0,1,.37.29,2.46,2.46,0,0,1,.38.64,3.15,3.15,0,0,1-.1,2.71,2.9,2.9,0,0,1-1.71,1.38,2.78,2.78,0,0,1-1.47.06C292.84,152.82,292.68,152.71,292.69,152.67Z" style="fill:#263238"></path><path d="M330.31,282.36c0,.12.05.26.07.38C330.33,282.33,330.29,282,330.31,282.36Z" style="fill:#263238"></path><path d="M340.26,291.47l1.5,13.25,12.13,11.08a3.92,3.92,0,0,0,.47-3.05c-.55-1.38,2.77,1.8,2.77,1.8v7.62s2.08.83,2.77-1,1.11-8.31,1.11-8.31l-1-.69a3.57,3.57,0,0,0,1-3.05,10.91,10.91,0,0,0,.69-5.54,16.66,16.66,0,0,0-1.25-4.84l-9.93-11.09Z" style="fill:#aa6550"></path><path d="M346.35,304.23a21.2,21.2,0,0,0,3.58,4.45,20.88,20.88,0,0,0,4.36,3.7c.09-.11-1.81-1.81-4-4.06S346.47,304.13,346.35,304.23Z" style="fill:#724940"></path><path d="M354.87,306.65a18.93,18.93,0,0,0,2.88,3.32,18.7,18.7,0,0,0,3.26,3,19.59,19.59,0,0,0-2.89-3.32A19.29,19.29,0,0,0,354.87,306.65Z" style="fill:#724940"></path><path d="M356.51,303.61a31.32,31.32,0,0,0,2.29,2.73,31.81,31.81,0,0,0,2.21,2.79,8.05,8.05,0,0,0-1.82-3.12A8.21,8.21,0,0,0,356.51,303.61Z" style="fill:#724940"></path><path d="M357.9,300.48a12.76,12.76,0,0,0,1.8,2.19c1,1.17,1.79,2.18,1.92,2.1a6.26,6.26,0,0,0-1.53-2.43A5.94,5.94,0,0,0,357.9,300.48Z" style="fill:#724940"></path><path d="M268.64,141.71a20.45,20.45,0,0,1-4.43-1.72,20,20,0,0,1-4.2-2.23,20.45,20.45,0,0,1,4.43,1.72A20,20,0,0,1,268.64,141.71Z" style="fill:#455a64"></path><path d="M254.63,162.07c-1,0-3.42,1.41-5.37,4.09l-.1.12c-1.39,1.8-2.69-3.35-2.92-5.26a2,2,0,0,0-2.72-1.56l-6.43,3-1.88.07a1.91,1.91,0,0,0-1.23,2.27L237.06,175l.06,2.77L250,179.49l.2-7c.19-.8.45-1.75.79-2.83a8.79,8.79,0,0,1,1.42-2.71,15.87,15.87,0,0,1,2.32-2.54,1.59,1.59,0,0,1,.21-.15,1,1,0,0,0,.36-.32A1.11,1.11,0,0,0,254.63,162.07Z" style="fill:#aa6550"></path><path d="M254.38,130.76s-7.52-1.44-18.33-11.26-16.13-23.11-17.41-23-7-2.35-17,21.21-5.66,28.84-3.54,28.74,16.46-4.54,25.51-3.77,20.79,5.14,20.79,5.14Z" style="fill:#00D4F5"></path><path d="M270.62,143l-2.42,4.92-1.08,2.2a6.33,6.33,0,0,1-8.16,3L242.78,148l8.72-21.57,16.25,8.08A6.34,6.34,0,0,1,270.62,143Z" style="fill:#263238"></path><path d="M261.6,151l-4.82,10.15-2.58-.64-16.28,14-4.92-9s9.73-4.52,11.45-8.09-.4-4.3-.4-4.3l4.49-5.4Z" style="fill:#263238"></path><path d="M202.5,118.11c-5.33,12.76-7.38,24-4.58,25.22s9.4-8.22,14.73-21,7.39-24,4.58-25.23S207.83,105.35,202.5,118.11Z" style="fill:#263238"></path><polygon points="272.19 149.95 267.81 148.71 270.35 143.53 273.67 145.46 272.19 149.95" style="fill:#455a64"></polygon><g style="opacity:0.30000000000000004"><polygon points="247 149.63 258.88 156.74 260.25 153.85 247 149.63"></polygon></g><path d="M267.39,144.79a24.68,24.68,0,0,1-4.89-1.74,25,25,0,0,1-4.68-2.26,23.4,23.4,0,0,1,4.9,1.74A24.65,24.65,0,0,1,267.39,144.79Z" style="fill:#455a64"></path><path d="M265.8,148a3.6,3.6,0,0,1-1.37-.26c-.42-.12-.91-.26-1.45-.44s-1.11-.44-1.71-.69a18.16,18.16,0,0,1-4.19-2.2,23.42,23.42,0,0,1,4.41,1.68c.6.25,1.15.53,1.68.74s1,.37,1.38.53C265.34,147.72,265.82,148,265.8,148Z" style="fill:#455a64"></path><path d="M214,115s-6.61-3.85-9.91,5,3.57,10.13,3.57,10.13A58.66,58.66,0,0,0,214,115Z" style="fill:#fafafa"></path><path d="M220.63,104.32a9,9,0,0,1-.2,1.68c-.18,1.08-.42,2.65-.79,4.57-.24,1-.52,2-.81,3.1-.14.55-.3,1.13-.45,1.72l-.24.9c-.09.31-.21.6-.31.91-.44,1.22-.89,2.5-1.36,3.83l-.36,1c-.12.34-.29.66-.43,1l-.91,2-.91,2c-.16.33-.29.67-.46,1l-.52.94-2,3.55c-.16.28-.31.57-.47.84l-.52.77c-.34.51-.67,1-1,1.49-.64,1-1.24,1.84-1.78,2.66-1.2,1.54-2.21,2.76-2.9,3.6a9.52,9.52,0,0,1-1.13,1.27,9.91,9.91,0,0,1,1-1.4l2.75-3.71,1.72-2.68,1-1.49.51-.77c.16-.27.3-.56.46-.84.61-1.13,1.26-2.32,1.93-3.54.16-.31.33-.62.5-.93s.3-.65.46-1l.9-2,.91-2c.14-.33.31-.65.43-1l.36-1,1.38-3.79c.11-.3.23-.6.32-.9s.17-.6.25-.89c.16-.59.32-1.15.48-1.71l.87-3.06c.4-1.88.72-3.42,1-4.51A11.78,11.78,0,0,1,220.63,104.32Z" style="fill:#263238"></path><path d="M241.27,157.52a1.47,1.47,0,0,0-.77,1.84c.5,1.4,1.3,3.6,1.89,4.93a3.92,3.92,0,0,0,.74,1.19,1.24,1.24,0,0,0,1.25.35,1.37,1.37,0,0,0,.75-1.19,4.06,4.06,0,0,0-.27-1.46c-.42-1.31-1.15-3.27-1.77-4.87a1.37,1.37,0,0,0-1.82-.79Z" style="fill:#aa6550"></path><path d="M239.32,160.1a1.49,1.49,0,0,0-.78,1.85c.5,1.4,1.3,3.6,1.9,4.93a3.82,3.82,0,0,0,.73,1.19,1.26,1.26,0,0,0,1.26.34,1.33,1.33,0,0,0,.74-1.19,3.88,3.88,0,0,0-.26-1.46c-.43-1.31-1.15-3.27-1.78-4.86a1.37,1.37,0,0,0-1.81-.8Z" style="fill:#aa6550"></path><path d="M237.43,161.74a1.27,1.27,0,0,0-.7,1.6c.45,1.21,1.17,3.12,1.72,4.27a3.19,3.19,0,0,0,.66,1,1.15,1.15,0,0,0,1.13.3,1.17,1.17,0,0,0,.68-1,3.29,3.29,0,0,0-.24-1.27c-.38-1.13-1-2.83-1.61-4.21a1.25,1.25,0,0,0-1.64-.69Z" style="fill:#aa6550"></path><path d="M235,162.29a1.26,1.26,0,0,0-.7,1.61c.45,1.22,1.17,3.13,1.72,4.29a3.06,3.06,0,0,0,.67,1,1.15,1.15,0,0,0,1.13.3,1.17,1.17,0,0,0,.68-1,3.12,3.12,0,0,0-.24-1.27c-.38-1.14-1.05-2.85-1.61-4.24a1.28,1.28,0,0,0-1.65-.69Z" style="fill:#aa6550"></path><path d="M243,165.54a7.8,7.8,0,0,1-1.31-2.46,7.7,7.7,0,0,1-.83-2.65,7.32,7.32,0,0,1,1.31,2.45A7.66,7.66,0,0,1,243,165.54Z" style="fill:#724940"></path><path d="M240.86,167.68a19.31,19.31,0,0,1-2.32-5.85,9.67,9.67,0,0,1,1.4,2.83A9.33,9.33,0,0,1,240.86,167.68Z" style="fill:#724940"></path><path d="M238.64,168a6.45,6.45,0,0,1-1.42-2.44,6.34,6.34,0,0,1-.73-2.72,9.89,9.89,0,0,1,1.21,2.52A9.65,9.65,0,0,1,238.64,168Z" style="fill:#724940"></path><path d="M332.44,364.29l-6.79-54.49c4.42-10.33,6-20.65,4.73-27.06.08.67.11,1.5-.07-.38-1.1-11.35-10.9-19.69-10.9-19.69l-3.28-13.77-42,5.9,1.59,23.05L248.6,373.47l-4.93,80.83,21.93,2.57s8.6-40.42,10.91-57.31a233,233,0,0,0,2.18-27.63l20.6-30.83c2.44,12.73,5.2,28.43,6.62,36.63a21.58,21.58,0,0,0,4.57,10l53.91,42.43V404.57C359.26,392.33,332.44,364.29,332.44,364.29Z" style="fill:#263238"></path><path d="M279.56,271.91a9.71,9.71,0,0,1-.88-2.29,42,42,0,0,1-1.3-5.75,41.43,41.43,0,0,1-.46-5.89,9.94,9.94,0,0,1,.16-2.44,13.15,13.15,0,0,1,.21,2.43c.09,1.5.27,3.56.61,5.82s.78,4.28,1.14,5.73A14.88,14.88,0,0,1,279.56,271.91Z" style="fill:#455a64"></path><path d="M281.5,256.23s.16-.16.54-.24a2.47,2.47,0,0,1,1.61.23,2.5,2.5,0,0,1,1.43,2,2.84,2.84,0,0,1-1.34,2.64,2.61,2.61,0,0,1-2.94-.27,2.48,2.48,0,0,1-1-2.2,3.78,3.78,0,0,1,.47-1.54c.17-.34.3-.5.33-.48s0,.21-.15.56a4.86,4.86,0,0,0-.29,1.47,2.2,2.2,0,0,0,.92,1.81,2.16,2.16,0,0,0,2.38.21,2.43,2.43,0,0,0,1.13-2.16,2.17,2.17,0,0,0-1.12-1.68A3.16,3.16,0,0,0,281.5,256.23Z" style="fill:#455a64"></path><path d="M309.08,267.34s-.25.14-.74.31a12.45,12.45,0,0,1-2.12.48,15.76,15.76,0,0,1-3.23.11,18.16,18.16,0,0,1-3.89-.74,18.49,18.49,0,0,1-3.61-1.64,15.6,15.6,0,0,1-2.58-1.95,12,12,0,0,1-1.45-1.62c-.31-.41-.46-.65-.43-.67s.76.84,2.13,2a18.29,18.29,0,0,0,2.57,1.82,19.45,19.45,0,0,0,3.53,1.55,19,19,0,0,0,3.77.76,16.5,16.5,0,0,0,3.15,0C308,267.59,309.05,267.25,309.08,267.34Z" style="fill:#455a64"></path><path d="M322.57,308.47a3.87,3.87,0,0,1-.45.64l-1.39,1.77c-1.16,1.57-2.84,3.83-4.86,6.68-4.05,5.68-9.52,13.63-15.51,22.44S289,356.78,285.09,362.61l-4.64,6.84c-.54.77-1,1.39-1.28,1.85a4.24,4.24,0,0,1-.48.63,5,5,0,0,1,.39-.69l1.2-1.9,4.5-6.94c3.83-5.84,9.16-13.88,15.15-22.69s11.51-16.73,15.64-22.37c2.06-2.82,3.79-5,5-6.59L322,309A6.41,6.41,0,0,1,322.57,308.47Z" style="fill:#455a64"></path><path d="M315.18,186.36c.08,0,.08-1.05.36-2.71a18.67,18.67,0,0,1,2.2-6.11A10.33,10.33,0,0,1,322.2,173a6,6,0,0,1,2.62-.41,1.5,1.5,0,0,0-.73-.2,4.5,4.5,0,0,0-2,.28,10,10,0,0,0-4.77,4.62,17,17,0,0,0-2.11,6.32A8.06,8.06,0,0,0,315.18,186.36Z" style="fill:#263238"></path><path d="M311.72,170.17l-22,3.4L285.82,177S272,203.9,271.73,209.34c-.28,6,2.94,16.33,2.94,16.33l-3.16,23.8c-.47,2.73,1.31,5.36,2.5,5.36l38-5.1c4.95-1,7-3.56,6.68-6.42L318.1,238l16.21-54.31c1,3.21-.54-8.66-7.78-11.32C323.47,171.24,316.38,169.19,311.72,170.17Z" style="fill:#00D4F5"></path><path d="M287.84,175.36s-6.76,5.22-13.17,11.15-23.48,17.79-23.48,17.79L250,179.49l-12.89-1.75s-6.29,30.94-2.3,39.48,8.78,8.91,22.06,4.64S274,215.69,274,215.69Z" style="fill:#00D4F5"></path><path d="M284.45,179.05s-.12.12-.31.38l-.79,1.16c-.67,1-1.63,2.48-2.78,4.33a69.46,69.46,0,0,0-7.37,15.3,33.86,33.86,0,0,0-1.14,16.87,23.13,23.13,0,0,0,1.59,4.91,14,14,0,0,0,.64,1.26c.15.28.24.42.26.41s-.26-.62-.72-1.74a26.27,26.27,0,0,1-1.42-4.91,34.91,34.91,0,0,1,1.27-16.65,75.1,75.1,0,0,1,7.2-15.26l2.64-4.42.71-1.2A2,2,0,0,0,284.45,179.05Z" style="fill:#263238"></path><path d="M322.4,172.37s-6.84,9-7.22,17.19,12.28,57.53,12.28,57.53l11.1,45,13.81-5.1s-3.21-32-3.82-36c-1.28-8.29-6.74-24.45-7.49-33.79s-4.21-27.34-5.92-31.55S333.36,172.14,322.4,172.37Z" style="fill:#00D4F5"></path><path d="M315.75,194.1a1.67,1.67,0,0,0,0,.49c0,.37.1.82.16,1.37.16,1.19.43,2.9.81,5,.76,4.23,2,10,3.4,16.41s2.85,12.13,3.93,16.28c.54,2.08,1,3.75,1.32,4.91.15.53.28,1,.39,1.32s.15.46.17.45a1.69,1.69,0,0,0-.07-.47l-.3-1.35c-.29-1.25-.69-2.91-1.16-4.94-1-4.25-2.31-10-3.78-16.31s-2.7-12.16-3.54-16.36c-.4-2-.73-3.73-1-5-.1-.54-.19-1-.26-1.36A1.6,1.6,0,0,0,315.75,194.1Z" style="fill:#263238"></path><g style="opacity:0.30000000000000004"><path d="M314.76,249c-2.18-2.19-2.63-5.51-3-8.57q-1.62-14.64-3.25-29.28c-.68-6.08-1.32-12.46,1-18.14a3.09,3.09,0,0,1,1.74-2,2.24,2.24,0,0,1,2.28.94c.53.7,2,1.71,2.23,2.55,2.22,8.7,3.18,17.27,5.39,26,.59,2.3,1.35,2.21.84,4.53-.73,3.36-3.88,13-3.88,13s.45,3.51.58,5.56a5.34,5.34,0,0,1-3.92,5.43"></path></g><path d="M316.8,199a3,3,0,0,0,.75.55,18.12,18.12,0,0,0,2.23,1.19,7.86,7.86,0,0,0,3.72.75,9,9,0,0,0,4.31-1.69,30.9,30.9,0,0,1,3.83-2.41,5.65,5.65,0,0,1,3.49-.57,4,4,0,0,1,2.13,1.07c.4.42.53.72.57.7s0-.35-.42-.83a3.87,3.87,0,0,0-2.21-1.29,5.79,5.79,0,0,0-3.75.49,28.22,28.22,0,0,0-3.92,2.41,8.9,8.9,0,0,1-4.07,1.66,8.07,8.07,0,0,1-3.54-.62C318,199.57,316.85,198.87,316.8,199Z" style="fill:#fafafa"></path><path d="M274,197.91s0,.13.2.37a5.42,5.42,0,0,0,.74.94,8.3,8.3,0,0,0,3.83,2.16,13.57,13.57,0,0,0,6.53.09,63.72,63.72,0,0,0,7.59-2.44,25.18,25.18,0,0,1,14.09-.95,37.18,37.18,0,0,1,5.64,1.88,1.37,1.37,0,0,0-.35-.22,10.62,10.62,0,0,0-1.06-.55,22,22,0,0,0-4.15-1.46,24.11,24.11,0,0,0-6.49-.7,25.33,25.33,0,0,0-7.85,1.52,70.35,70.35,0,0,1-7.52,2.46,13.5,13.5,0,0,1-6.33,0,8.53,8.53,0,0,1-3.79-1.95C274.31,198.38,274,197.88,274,197.91Z" style="fill:#fafafa"></path><path d="M265.9,193.55a5.11,5.11,0,0,0-.11,2,12.66,12.66,0,0,0,4.55,8.64,5.21,5.21,0,0,0,1.76,1.08,20.11,20.11,0,0,0-1.52-1.35,14.46,14.46,0,0,1-2.93-3.83,14.61,14.61,0,0,1-1.5-4.58C266,194.33,266,193.55,265.9,193.55Z" style="fill:#fafafa"></path><g style="opacity:0.30000000000000004"><path d="M280,185.64c-10.38,10.42-19.3,22-23.13,36.22,5.93-2,11.54-3.83,15.24-5.37,0,0-1.11-5.86-.44-9.31.83-4.21.82-7.75,8.33-21.54"></path></g><path d="M251.38,204.36a31,31,0,0,0-2.07,3.22,34.62,34.62,0,0,0-1.22,3.63,6.23,6.23,0,0,1,.75-3.86A6.1,6.1,0,0,1,251.38,204.36Z" style="fill:#263238"></path></g></svg>
