<?xml version="1.0" encoding="utf-8"?>
<!-- Generator: Adobe Illustrator 27.5.0, SVG Export Plug-In . SVG Version: 6.00 Build 0)  -->
<svg version="1.1" xmlns="http://www.w3.org/2000/svg" xmlns:xlink="http://www.w3.org/1999/xlink" x="0px" y="0px"
	 viewBox="0 0 500 500" style="enable-background:new 0 0 500 500;" xml:space="preserve">
<g id="BACKGROUND">
	<rect style="fill:#FFFFFF;" width="500" height="500"/>
</g>
<g id="OBJECTS">
	<g>
		<g>
			<g>
				<path style="fill-rule:evenodd;clip-rule:evenodd;fill:#F1F1F1;" d="M144.199,130.859H247.71
					c6.036,0,10.928-4.893,10.928-10.928V98.818c0-6.036-4.893-10.928-10.928-10.928H144.199c-6.036,0-10.928,4.893-10.928,10.928
					v21.113C133.271,125.966,138.163,130.859,144.199,130.859z"/>
				<polygon style="fill-rule:evenodd;clip-rule:evenodd;fill:#F1F1F1;" points="235.921,128.333 228.831,140.182 221.149,128.333 
									"/>
			</g>
			<text transform="matrix(1 0 0 1 155.7604 118.8797)" style="fill:#6A74AF; font-family:'Bebas'; font-size:22.5581px;">urgent!</text>
		</g>
		<g>
			<g>
				<g>
					<g>
						<g>
							<path style="fill-rule:evenodd;clip-rule:evenodd;fill:#F1F1F1;" d="M272.536,191.671h-4.517
								c-13.108,0-23.734-10.626-23.734-23.734v0c0-13.108,10.626-23.734,23.734-23.734h4.517c13.108,0,23.734,10.626,23.734,23.734
								v0C296.27,181.045,285.643,191.671,272.536,191.671z"/>
							<polygon style="fill-rule:evenodd;clip-rule:evenodd;fill:#F1F1F1;" points="262.429,187.789 270.611,201.059 
								279.475,187.789 							"/>
						</g>
					</g>
				</g>
			</g>
			<g>
				<polygon style="fill:#6A74AF;" points="281.493,159.393 259.638,159.393 270.405,167.205 				"/>
				<path style="fill:#6A74AF;" d="M270.393,170.14c-0.271,0-0.543-0.083-0.773-0.25l-11.921-8.649v14.5h25.39v-14.253
					l-11.938,8.412C270.924,170.06,270.659,170.14,270.393,170.14z"/>
			</g>
		</g>
		<g>
			<circle style="fill:#EDBBA0;" cx="280.537" cy="238.407" r="7.097"/>
			<polygon style="fill:#EDBBA0;" points="280.537,245.505 307.599,241.894 306.729,234.138 281.919,237.6 			"/>
			<g>
				<path style="fill:#E6B29A;" d="M341.83,399.247c-0.143-0.803-0.937-20.802-0.937-20.802l-10.617,0.154l0.805,20.816
					L341.83,399.247z"/>
				<path style="fill:#121932;" d="M313.076,404.136l29.636-0.301l-0.132-9.095l-20.464,0.208
					C317.082,394.989,313.035,399.102,313.076,404.136L313.076,404.136z"/>
			</g>
			<g>
				<path style="fill:#E6B29A;" d="M387.827,399.247c-0.143-0.803-2.912-20.802-2.912-20.802l-10.617,0.154l2.781,20.816
					L387.827,399.247z"/>
				<path style="fill:#121932;" d="M359.073,404.136l29.635-0.301l-0.132-9.095l-20.464,0.208
					C363.079,394.989,359.032,399.102,359.073,404.136L359.073,404.136z"/>
			</g>
			<path style="fill:#5B6697;" d="M325.535,388.309l-2.37-75.473c-0.033-1.053,0.117-2.103,0.441-3.106l20.234-62.445l17.422,5.646
				l-19.743,60.93l2.321,73.882L325.535,388.309z"/>
			<path style="fill:#D1897C;" d="M291.436,246.079l-1.608-12.103l33.829-4.494l20.986-33.778l10.371,6.444l-22.508,36.228
				c-0.965,1.552-2.571,2.59-4.382,2.83L291.436,246.079z"/>
			<path style="fill:#E09B88;" d="M368.347,239.224h-24.4l-2.035-35.851c0-8.015,6.498-14.513,14.513-14.513h1.479
				c8.015,0,14.513,6.498,14.513,14.513L368.347,239.224z"/>
			
				<ellipse transform="matrix(0.3848 -0.923 0.923 0.3848 100.8205 444.4785)" style="fill:#4F3929;" cx="383.832" cy="146.61" rx="17.868" ry="17.868"/>
			<path style="fill:#EECB31;" d="M364.481,145.727c0,0,6.057-1.893,9.65,5.28c3.592,7.173-2.323,14.59-2.323,14.59L364.481,145.727
				z"/>
			<path style="fill:#E6B29A;" d="M355.254,193.893L355.254,193.893c-2.603,0-4.713-2.11-4.713-4.713v-14.389h9.425v14.389
				C359.966,191.783,357.856,193.893,355.254,193.893z"/>
			<path style="fill:#EDBBA0;" d="M373.034,162.919c1.485,10.878-6.129,20.901-17.007,22.386
				c-10.878,1.486-20.901-6.129-22.386-17.007c-1.486-10.878,6.129-20.901,17.007-22.386
				C361.526,144.427,371.549,152.041,373.034,162.919z"/>
			<g>
				<path style="fill:#121932;" d="M340.791,164.885c0.541,0.542,0.529,1.432-0.027,1.988c-0.556,0.556-1.446,0.568-1.988,0.027
					c-0.542-0.541-0.529-1.431,0.027-1.988C339.359,164.356,340.249,164.344,340.791,164.885z"/>
				<path style="fill:#121932;" d="M352.781,165.893c0,0.766-0.638,1.387-1.425,1.387c-0.787,0-1.424-0.621-1.424-1.387
					c0-0.766,0.638-1.387,1.424-1.387C352.143,164.506,352.781,165.127,352.781,165.893z"/>
				<path style="fill:#121932;" d="M354.786,162.02h-5.593c-0.546,0-0.988-0.442-0.988-0.988c0-0.546,0.442-0.988,0.988-0.988h5.593
					c0.546,0,0.988,0.443,0.988,0.988C355.774,161.578,355.331,162.02,354.786,162.02z"/>
				<path style="fill:#121932;" d="M341.155,162.02h-3.626c-0.546,0-0.988-0.442-0.988-0.988c0-0.546,0.443-0.988,0.988-0.988h3.626
					c0.546,0,0.988,0.443,0.988,0.988C342.143,161.578,341.701,162.02,341.155,162.02z"/>
				<path style="fill:#D69C85;" d="M344.416,167.579l-2.808,3.568c-0.336,0.427-0.02,1.043,0.532,1.038l3.797-0.035L344.416,167.579
					L344.416,167.579z"/>
			</g>
			<path style="fill:#D69C85;" d="M344.958,176.859c-2.467,0-4.058-1.356-4.082-1.376c-0.208-0.182-0.228-0.497-0.047-0.704
				c0.18-0.207,0.495-0.229,0.705-0.05c0.121,0.106,3.033,2.547,7.126-0.044c0.23-0.149,0.541-0.081,0.69,0.154
				c0.148,0.233,0.079,0.542-0.155,0.689C347.624,176.525,346.184,176.859,344.958,176.859z"/>
			<g>
				<defs>
					<path id="SVGID_1_" d="M374.054,164.826c-0.053-0.387-0.141-0.759-0.214-1.138v-1.702c0-11.037-8.947-19.985-19.985-19.985
						h-1.04c-11.274,0-20.413,9.139-20.413,20.413v5.981l0.016-3c0.025,0.693,0.083,1.391,0.179,2.092
						c1.563,11.448,12.111,19.461,23.559,17.898C367.604,183.822,375.618,176.274,374.054,164.826z"/>
				</defs>
				<clipPath id="SVGID_00000036934109161977552630000014922996291496042139_">
					<use xlink:href="#SVGID_1_"  style="overflow:visible;"/>
				</clipPath>
				<path style="clip-path:url(#SVGID_00000036934109161977552630000014922996291496042139_);fill:#4F3929;" d="M374.054,164.826
					c0,0-14.288,1.67-17.376-13.111c0,0-17.128,9.956-27.504,1.41c-10.637-8.762,12.96-19.236,12.96-19.236l32.114,2.29
					L374.054,164.826z"/>
			</g>
			<path style="fill:#EDBBA0;" d="M379.216,162.757c1.777,2.941,0.833,6.767-2.109,8.543c-2.942,1.777-6.767,0.833-8.544-2.109
				c-1.777-2.942-0.833-6.767,2.109-8.543C373.614,158.872,377.44,159.816,379.216,162.757z"/>
			<path style="fill:#6A74AF;" d="M368.347,239.224c0,0,13.036,17.354,2.403,27.996c0,0-34.967,4.092-26.803-27.996H368.347z"/>
			<path style="fill:#6A74AF;" d="M371.364,387.75l-14.375-74.655c-0.049-0.264-0.088-0.529-0.113-0.797l-5.375-54.967l18.227-1.782
				l5.336,54.567l14.3,76.273L371.364,387.75z"/>
			<path style="fill:#E09B88;" d="M344.968,194.463l-5.272,10.448c-0.929,1.816-0.9,3.878,0.079,5.676l7.28,13.357L344.968,194.463z
				"/>
			<circle style="fill:#EDBBA0;" cx="367.251" cy="252.838" r="7.097"/>
			<path style="fill:#E09B88;" d="M375.892,253.081l-8.817-8.446l23.993-25.05l-33.947-19.044l5.974-10.648l40.819,22.898
				c1.647,0.924,2.774,2.558,3.052,4.425c0.278,1.867-0.324,3.759-1.629,5.122L375.892,253.081z"/>
			<g>
				<path style="fill:#4A578C;" d="M263.24,221.983l7.846-2.129c0.317-0.086,0.656-0.023,0.922,0.172l19.868,15.072
					c0.666,0.488,0.559,1.513-0.193,1.854l-7.334,3.322c-0.363,0.164-0.786,0.116-1.103-0.127l-20.38-16.264
					C262.157,223.338,262.378,222.217,263.24,221.983z"/>
				<polygon style="fill:#FFFFFF;" points="266.454,223.39 284.085,236.82 288.584,234.741 272.15,221.899 				"/>
			</g>
		</g>
		<g>
			<g>
				<g>
					<rect x="145.318" y="307.166" style="fill:#3E3A39;" width="3.538" height="12.351"/>
				</g>
				<g>
					<path style="fill-rule:evenodd;clip-rule:evenodd;fill:#121932;" d="M164.554,403.507c2.147,0,3.898-1.751,3.898-3.898
						c0-2.147-1.751-3.898-3.898-3.898c-2.147,0-3.898,1.751-3.898,3.898C160.656,401.756,162.407,403.507,164.554,403.507z"/>
					<path style="fill-rule:evenodd;clip-rule:evenodd;fill:#121932;" d="M205.068,403.507c2.147,0,3.898-1.751,3.898-3.898
						c0-2.147-1.751-3.898-3.898-3.898c-2.147,0-3.898,1.751-3.898,3.898C201.17,401.756,202.921,403.507,205.068,403.507z"/>
					<rect x="163.32" y="362.996" style="fill-rule:evenodd;clip-rule:evenodd;fill:#B2B3B3;" width="6.883" height="26.687"/>
					<polygon style="fill-rule:evenodd;clip-rule:evenodd;fill:#121932;" points="162.119,386.376 171.404,386.376 171.404,390.746 
						206.948,392.812 206.948,396.896 171.404,396.896 168.638,396.896 164.884,396.896 164.884,396.896 126.575,396.896 
						126.575,392.813 162.119,390.746 					"/>
					<rect x="161.199" y="355.784" style="fill-rule:evenodd;clip-rule:evenodd;fill:#121932;" width="11.125" height="10.52"/>
					<rect x="158.446" y="343.356" style="fill-rule:evenodd;clip-rule:evenodd;fill:#121932;" width="16.629" height="14.464"/>
					<path style="fill-rule:evenodd;clip-rule:evenodd;fill:#121932;" d="M151.978,343.356h29.607c4.15,0,7.514-3.364,7.514-7.515
						l0,0h-44.636l0,0C144.463,339.991,147.827,343.356,151.978,343.356z"/>
					<g>
						<path style="fill:#121932;" d="M125.475,399.609c0,2.147,1.751,3.898,3.898,3.898c2.147,0,3.898-1.751,3.898-3.898
							c0,0,0,0,0,0L125.475,399.609C125.475,399.609,125.475,399.609,125.475,399.609z"/>
						<path style="fill:#121932;" d="M129.373,395.711c-2.147,0-3.898,1.751-3.898,3.898h7.795
							C133.27,397.462,131.52,395.711,129.373,395.711z"/>
						<path style="fill:#121932;" d="M164.554,395.711c-2.147,0-3.898,1.751-3.898,3.898h7.795
							C168.451,397.462,166.7,395.711,164.554,395.711z"/>
						<path style="fill:#121932;" d="M205.068,395.711c-2.147,0-3.898,1.751-3.898,3.898h7.795
							C208.965,397.462,207.214,395.711,205.068,395.711z"/>
					</g>
				</g>
				<path style="fill:#4A516C;" d="M131.123,317.439h58.591c1.723,0,3.401,0.55,4.789,1.571l15.322,11.266l-66.876,1.292
					L131.123,317.439z"/>
				<polygon style="fill:#6A74AF;" points="121.711,226.779 170.036,226.779 177.842,311.333 128.954,311.333 				"/>
				<path style="fill:#4A516C;" d="M202.37,337.628h-44.779c-3.347,0-6.061-2.713-6.061-6.061s2.714-6.061,6.061-6.061h44.779
					c3.347,0,6.061,2.714,6.061,6.061S205.717,337.628,202.37,337.628z"/>
				<path style="fill:#9CA6D7;" d="M161.523,337.628h-18.579c-1.245,0-2.46-0.383-3.479-1.098l-11.506-8.067
					c-2.741-1.922-3.405-5.701-1.483-8.442c1.92-2.742,5.7-3.404,8.441-1.483l9.94,6.969h16.665c3.347,0,6.061,2.714,6.061,6.061
					S164.87,337.628,161.523,337.628z"/>
				<path style="fill:#9CA6D7;" d="M128.954,311.359c-3.095,0-5.737-2.361-6.027-5.504l-6.693-72.484
					c-0.308-3.333,2.145-6.285,5.478-6.592c3.307-0.315,6.285,2.144,6.592,5.478l6.692,72.484c0.308,3.333-2.145,6.285-5.477,6.592
					C129.329,311.351,129.141,311.359,128.954,311.359z"/>
				<path style="fill:#6A74AF;" d="M177.277,311.359c-3.095,0-5.737-2.361-6.027-5.504l-4.29-72.484
					c-0.308-3.333-0.257-6.284,3.076-6.592c3.311-0.315,6.283,2.144,6.592,5.478l6.691,72.484c0.308,3.333-2.145,6.284-5.477,6.592
					C177.653,311.351,177.465,311.359,177.277,311.359z"/>
			</g>
			<g>
				<path style="fill:#E6B29A;" d="M199.612,399.247c0.143-0.803,0.937-20.802,0.937-20.802l10.617,0.154l-0.805,20.816
					L199.612,399.247z"/>
				<path style="fill:#121932;" d="M228.367,404.136l-29.636-0.301l0.132-9.095l20.464,0.208
					C224.36,394.989,228.407,399.102,228.367,404.136L228.367,404.136z"/>
			</g>
			<path style="fill:#242A40;" d="M210.212,300.73c-0.205-0.012-0.408-0.019-0.61-0.02l-0.295,0.001h-31.48v22.036h20.635
				l0.921,63.31l15.871,0.666l5.064-74.6C220.673,306.186,216.148,301.086,210.212,300.73z"/>
			<path style="fill:#394694;" d="M200.086,289.818c1.256-0.408,2.418-1.155,3.339-2.23c2.67-3.115,2.31-7.805-0.805-10.475
				l-21.175-38.414c-3.119-2.672-7.807-2.307-10.475,0.805c-2.67,3.115-2.31,7.805,0.805,10.475l21.175,38.414
				C194.991,290.141,197.706,290.59,200.086,289.818z"/>
			<path style="fill:#4652B0;" d="M171.6,233.098l-22.614,1.548c-4.579,0-8.219,4.088-7.965,8.947l-3.542,55.623l40.347-0.289
				l5.887-48.931c0.035-0.206,0.06-0.415,0.07-0.623C184.194,240.54,179.963,233.098,171.6,233.098z"/>
			<g>
				<path style="fill:#EDBBA0;" d="M167.317,399.247c0.143-0.803-0.349-20.802-0.349-20.802l10.617,0.154l0.48,20.816
					L167.317,399.247z"/>
				<path style="fill:#121932;" d="M196.071,404.136l-29.635-0.301l0.132-9.095l20.464,0.208
					C192.065,394.989,196.112,399.102,196.071,404.136L196.071,404.136z"/>
			</g>
			<path style="fill:#EDBBA0;" d="M192.229,285.412c-1.684-3.446-5.842-4.874-9.288-3.191c-1.131,0.553-2.039,1.375-2.697,2.348
				l-10.351,0.404l-3.648,6.865l14.56,1.234c2.018,2.272,5.37,3.027,8.234,1.628C192.484,293.017,193.913,288.858,192.229,285.412z"
				/>
			<path style="fill:#303658;" d="M184.591,310.069c0.085-4.802-4.358-8.735-9.867-8.735h-37.245v10.15
				c0,5.115,3.998,8.22,10.622,9.261l15.241,2.869l3.276,63.106h15.236l2.631-69.792l-0.21-0.057L184.591,310.069z"/>
			<path style="fill:#A2A2A2;" d="M156.16,294.87h38.612v-4.356H156.16c-1.203,0-2.178,0.975-2.178,2.178l0,0
				C153.981,293.895,154.957,294.87,156.16,294.87z"/>
			<g>
				<path style="fill:#C3C5C7;" d="M189.689,294.87h51.163c2.947,0,5.533-1.964,6.323-4.803l9.977-35.843
					c0.882-3.169-1.501-6.306-4.79-6.306H205.37c-1.967,0-3.687,1.326-4.187,3.229L189.689,294.87z"/>
				<path style="fill:#FFFFFF;" d="M222.25,274.298c0,2.673,2.167,4.84,4.84,4.84c2.673,0,4.84-2.167,4.84-4.84
					c0-2.673-2.167-4.841-4.84-4.841C224.417,269.458,222.25,271.625,222.25,274.298z"/>
			</g>
			<path style="fill:#4652B0;" d="M171.805,295.35l3.366-12.996l-29-9.502l9.315-28.901c0.485-4.122-2.425-7.86-6.5-8.35l0,0
				c-4.074-0.49-7.769,2.453-8.254,6.574l-10.292,37.212c-0.248,2.117,0.403,4.243,1.796,5.846c1.391,1.601,3.39,2.531,5.499,2.555
				L171.805,295.35z"/>
			
				<rect x="110.643" y="294.862" transform="matrix(-1 -1.224647e-16 1.224647e-16 -1 406.7711 596.7416)" style="fill:#383C5F;" width="185.486" height="7.018"/>
			
				<rect x="57.127" y="294.862" transform="matrix(-1 -1.224647e-16 1.224647e-16 -1 167.7693 596.7416)" style="fill:#595F85;" width="53.516" height="7.018"/>
			<path style="fill:#E6B29A;" d="M162.81,241.311L162.81,241.311c-3.165-0.258-5.522-3.033-5.264-6.198l1.236-15.172l11.462,0.933
				l-1.235,15.172C168.75,239.212,165.975,241.568,162.81,241.311z"/>
			
				<rect x="276.446" y="301.88" transform="matrix(-1 -1.224647e-16 1.224647e-16 -1 558.2227 706.0156)" style="fill:#E3E3E3;" width="5.33" height="102.256"/>
			
				<rect x="241.064" y="301.88" transform="matrix(-1 -1.224647e-16 1.224647e-16 -1 487.4586 706.0156)" style="fill:#F3F0EF;" width="5.33" height="102.256"/>
			
				<rect x="105.312" y="301.88" transform="matrix(-1 -1.224647e-16 1.224647e-16 -1 215.9547 706.0156)" style="fill:#E3E3E3;" width="5.33" height="102.256"/>
			
				<rect x="69.93" y="301.88" transform="matrix(-1 -1.224647e-16 1.224647e-16 -1 145.1906 706.0156)" style="fill:#F3F0EF;" width="5.33" height="102.256"/>
			
				<rect x="69.93" y="301.88" transform="matrix(-1 -1.224647e-16 1.224647e-16 -1 145.1906 607.4879)" style="opacity:0.8;fill:#ACACAC;" width="5.33" height="3.728"/>
			
				<rect x="105.312" y="301.88" transform="matrix(-1 -1.224647e-16 1.224647e-16 -1 215.9547 607.4879)" style="opacity:0.8;fill:#ACACAC;" width="5.33" height="3.728"/>
			
				<rect x="241.064" y="301.88" transform="matrix(-1 -1.224647e-16 1.224647e-16 -1 487.4586 607.4879)" style="opacity:0.8;fill:#ACACAC;" width="5.33" height="3.728"/>
			
				<rect x="276.446" y="301.88" transform="matrix(-1 -1.224647e-16 1.224647e-16 -1 558.2227 607.4879)" style="opacity:0.8;fill:#ACACAC;" width="5.33" height="3.728"/>
			<g>
				<path style="fill:#EDBBA0;" d="M153.155,188.877l17.548-1.212c6.206-0.429,11.585,4.255,12.014,10.461l0.875,12.67
					l-37.532,2.593l-1.047-15.16C144.679,193.398,148.324,189.211,153.155,188.877z"/>
				<path style="fill:#EDBBA0;" d="M145.642,210.169c-0.7,10.467,7.218,19.519,17.685,20.219c10.467,0.7,19.52-7.218,20.219-17.685
					c0.7-10.467-7.218-19.519-17.685-20.219C155.394,191.784,146.342,199.702,145.642,210.169z"/>
				<g>
					<path style="fill:#121932;" d="M178.504,207.781c-0.48,0.552-0.41,1.399,0.156,1.893c0.567,0.494,1.416,0.447,1.896-0.105
						c0.481-0.552,0.411-1.4-0.156-1.893C179.834,207.182,178.985,207.229,178.504,207.781z"/>
					<path style="fill:#121932;" d="M166.135,209.531c0.05,0.73,0.699,1.28,1.449,1.228c0.75-0.052,1.317-0.686,1.267-1.416
						c-0.05-0.73-0.699-1.28-1.449-1.228C166.651,208.167,166.084,208.801,166.135,209.531z"/>
					<path style="fill:#121932;" d="M163.969,205.434c-0.725,0-1.335-0.561-1.387-1.295c-0.052-0.766,0.526-1.43,1.292-1.483
						l5.331-0.368c0.776-0.05,1.43,0.527,1.483,1.292c0.052,0.766-0.526,1.43-1.292,1.483l-5.331,0.368
						C164.033,205.433,164,205.434,163.969,205.434z"/>
					<path style="fill:#121932;" d="M177.969,204.538c-0.725,0-1.335-0.561-1.386-1.294c-0.053-0.767,0.525-1.431,1.291-1.484
						l3.456-0.239c0.797-0.038,1.431,0.527,1.484,1.291c0.053,0.767-0.525,1.431-1.291,1.484l-3.456,0.239
						C178.033,204.536,178,204.538,177.969,204.538z"/>
					<path style="fill:#D69C85;" d="M174.165,211.573l2.898,2.7c0.369,0.365,0.142,0.986-0.382,1.047l-3.418,0.766L174.165,211.573
						L174.165,211.573z"/>
					<path style="fill:#D69C85;" d="M172.347,220.833l2.592-0.179c0.256-0.018,0.448-0.239,0.431-0.494s-0.239-0.448-0.494-0.43
						l-2.592,0.179c-0.256,0.018-0.448,0.239-0.43,0.495C171.87,220.658,172.091,220.85,172.347,220.833z"/>
				</g>
				<path style="fill:#4F3929;" d="M181.793,183.623c0,0,1.43-3.161-0.373-5.392c0,0-6.162,5.843-20.961,6.866l-5.393,0.372
					c-5.549,0.383-9.824,4.891-10.051,10.32l-0.072-0.001l0.779,15.307l8.572-0.592l-0.635-9.198
					c-0.296-4.293,4.401-5.207,4.401-5.207l0,0l24.478-1.691c0,0,5.982-2.062,5.819-11.238L181.793,183.623z"/>
				<path style="fill:#EDBBA0;" d="M138.931,210.469c-0.774,3.48,1.419,6.928,4.899,7.703c3.48,0.774,6.928-1.419,7.703-4.898
					c0.774-3.48-1.419-6.929-4.898-7.703S139.706,206.989,138.931,210.469z"/>
			</g>
			<g>
				<path style="fill:#4652B0;" d="M164.973,216.31c-4.382,0-8.09-3.405-8.396-7.841l0,0c-0.32-4.631,3.189-8.66,7.82-8.981
					c2.25-0.156,4.414,0.572,6.11,2.049c1.696,1.478,2.716,3.527,2.87,5.771c0.32,4.631-3.187,8.66-7.819,8.98
					C165.362,216.303,165.166,216.31,164.973,216.31z M158.082,208.365c0.264,3.801,3.569,6.681,7.371,6.418
					c3.801-0.263,6.68-3.57,6.417-7.37c-0.127-1.842-0.964-3.523-2.356-4.736c-1.391-1.212-3.165-1.806-5.014-1.682
					C160.7,201.257,157.821,204.564,158.082,208.365L158.082,208.365z"/>
				<path style="fill:#4652B0;" d="M183.505,215.028c-2.032,0-3.971-0.724-5.517-2.07c-1.696-1.478-2.715-3.527-2.87-5.771l0,0
					c-0.321-4.631,3.188-8.66,7.82-8.98c4.618-0.33,8.66,3.188,8.98,7.82c0.321,4.631-3.188,8.66-7.82,8.981
					C183.899,215.021,183.702,215.028,183.505,215.028z M183.522,199.697c-0.159,0-0.318,0.006-0.48,0.017
					c-3.801,0.264-6.681,3.57-6.418,7.37l0,0c0.128,1.842,0.964,3.524,2.356,4.735c1.391,1.213,3.163,1.803,5.014,1.682
					c1.842-0.128,3.523-0.964,4.735-2.356c1.213-1.392,1.809-3.173,1.682-5.014C190.16,202.491,187.117,199.697,183.522,199.697z"/>
				
					<rect x="172.55" y="205.483" transform="matrix(0.9976 -0.0691 0.0691 0.9976 -13.8301 12.5241)" style="fill:#4652B0;" width="3.255" height="1.51"/>
			</g>
			<polygon style="fill:#394694;" points="175.525,281.138 148.007,272.102 154.432,247.918 146.171,272.852 175.146,282.346 
				174.376,284.799 175.844,284.741 176.758,281.515 			"/>
		</g>
		<path style="fill:#D6D6D6;" d="M445.149,405.997H42.974c-0.823,0-1.49-0.667-1.49-1.49c0-0.823,0.667-1.49,1.49-1.49h402.176
			c0.823,0,1.49,0.666,1.49,1.49C446.639,405.33,445.973,405.997,445.149,405.997z"/>
	</g>
</g>
<g id="DESIGNED_BY_FREEPIK">
	<g>
		<g id="XMLID_319_">
			<g id="XMLID_338_">
				<path id="XMLID_346_" style="fill:#222221;" d="M260.104,465.465c-0.432,0.443-0.803,0.931-1.108,1.453l-0.465-0.241
					c-0.067-0.298-0.349-0.503-0.659-0.466c-0.331,0.039-0.568,0.339-0.529,0.67s0.339,0.568,0.67,0.529
					c0.065-0.008,0.127-0.026,0.184-0.052l0.451,0.234c-0.251,0.554-0.433,1.139-0.539,1.744l0.746,0.132
					c0.23-1.306,0.85-2.507,1.792-3.473L260.104,465.465z"/>
				<path id="XMLID_345_" style="fill:#222221;" d="M265.592,463.163c-0.171,0-0.341,0.006-0.51,0.017l-0.074-0.626
					c0.188-0.149,0.296-0.389,0.266-0.645c-0.046-0.393-0.402-0.674-0.795-0.628s-0.674,0.402-0.628,0.795
					c0.03,0.254,0.189,0.461,0.405,0.564l0.073,0.624c-0.714,0.116-1.403,0.332-2.06,0.646l0.327,0.684
					c0.934-0.447,1.942-0.673,2.995-0.673c0.496,0,0.993,0.053,1.475,0.158l0.161-0.741
					C266.693,463.222,266.142,463.163,265.592,463.163z"/>
				<path id="XMLID_344_" style="fill:#222221;" d="M272.194,465.711c0.331-0.04,0.566-0.341,0.525-0.672
					c-0.04-0.331-0.341-0.566-0.672-0.526c-0.309,0.038-0.535,0.304-0.53,0.609l-0.416,0.363c-0.418-0.43-0.89-0.813-1.408-1.139
					l-0.404,0.641c1.134,0.715,2.021,1.726,2.563,2.925l0.691-0.313c-0.251-0.554-0.568-1.072-0.942-1.545l0.402-0.351
					C272.065,465.716,272.129,465.719,272.194,465.711z"/>
				<path id="XMLID_343_" style="fill:#222221;" d="M265.044,473.372c-0.386,0.023-0.775,0.035-1.157,0.035
					c-0.88,0-1.733-0.061-2.478-0.179c-0.39-0.062-0.846-0.155-1.27-0.292c1.046,1.861,3.069,3.125,5.388,3.125
					c2.855,0,5.262-1.916,5.95-4.504c-0.682,0.449-1.505,0.825-2.459,1.123C267.839,473.047,266.464,473.286,265.044,473.372z"/>
				<path id="XMLID_339_" style="fill:#222221;" d="M265.592,464.68c-3.352,0-6.08,2.666-6.08,5.943
					c0,0.426,0.046,0.849,0.137,1.261c0.674,0.483,2.706,0.89,5.348,0.731c2.879-0.173,5.297-0.957,6.672-2.159
					c-0.005-0.195-0.021-0.39-0.045-0.582C271.244,466.913,268.65,464.68,265.592,464.68z M263.432,471.194
					c-1.02,0-1.85-0.83-1.85-1.85c0-1.02,0.83-1.85,1.85-1.85c1.02,0,1.85,0.83,1.85,1.85
					C265.282,470.365,264.452,471.194,263.432,471.194z M268.17,470.286c-0.75,0-1.36-0.61-1.36-1.36s0.61-1.361,1.36-1.361
					c0.75,0,1.361,0.61,1.361,1.361S268.92,470.286,268.17,470.286z"/>
			</g>
			<path id="XMLID_336_" style="fill:#222221;" d="M281.595,466.547c-0.295-0.116-0.806-0.309-1.382-0.237
				c-0.551,0.069-0.844,0.341-0.844,1.007v0.866h2.228v1.717h-2.228v5.455h-1.932v-5.455h-1.34v-1.717h1.34v-0.888
				c0-1.68,0.896-2.783,2.568-2.783c0.642,0,1.157,0.122,1.59,0.308L281.595,466.547z"/>
			<path id="XMLID_334_" style="fill:#222221;" d="M286.298,469.879c-0.177-0.03-0.358-0.046-0.526-0.046
				c-0.896,0-1.51,0.548-1.51,1.614v3.908h-1.932v-7.172h1.873v0.785c0.451-0.673,1.14-0.977,2.021-0.977
				c0.414,0,0.848,0.128,1.094,0.337L286.298,469.879z"/>
			<path id="XMLID_331_" style="fill:#222221;" d="M293.965,471.757c0,0.222-0.015,0.489-0.037,0.651h-5.085
				c0.207,1.036,0.933,1.488,1.843,1.488c0.622,0,1.295-0.252,1.813-0.688l1.132,1.243c-0.814,0.748-1.85,1.088-3.057,1.088
				c-2.198,0-3.723-1.495-3.723-3.753c0-2.258,1.48-3.797,3.627-3.797C292.544,467.99,293.958,469.522,293.965,471.757z
				 M288.851,471.091h3.175c-0.177-0.918-0.733-1.436-1.562-1.436C289.554,469.655,289.021,470.203,288.851,471.091z"/>
			<path id="XMLID_328_" style="fill:#222221;" d="M301.618,471.757c0,0.222-0.015,0.489-0.037,0.651h-5.085
				c0.207,1.036,0.932,1.488,1.843,1.488c0.622,0,1.295-0.252,1.813-0.688l1.132,1.243c-0.814,0.748-1.85,1.088-3.057,1.088
				c-2.198,0-3.723-1.495-3.723-3.753c0-2.258,1.48-3.797,3.627-3.797C300.197,467.99,301.611,469.522,301.618,471.757z
				 M296.504,471.091h3.175c-0.178-0.918-0.733-1.436-1.562-1.436C297.207,469.655,296.674,470.203,296.504,471.091z"/>
			<path id="XMLID_325_" style="fill:#222221;" d="M309.964,471.764c0,2.154-1.495,3.775-3.471,3.775
				c-0.962,0-1.643-0.378-2.109-0.933v3.708h-1.924v-10.133h1.887v0.792c0.466-0.585,1.155-0.984,2.139-0.984
				C308.469,467.99,309.964,469.61,309.964,471.764z M304.287,471.764c0,1.132,0.747,1.976,1.843,1.976
				c1.14,0,1.85-0.881,1.85-1.976c0-1.095-0.71-1.976-1.85-1.976C305.035,469.788,304.287,470.632,304.287,471.764z"/>
			<path id="XMLID_322_" style="fill:#222221;" d="M313.068,465.836c0,0.696-0.54,1.229-1.236,1.229
				c-0.696,0-1.229-0.533-1.229-1.229c0-0.696,0.533-1.243,1.229-1.243C312.527,464.592,313.068,465.14,313.068,465.836z
				 M312.809,475.354h-1.932v-7.172h1.932V475.354z"/>
			<path id="XMLID_320_" style="fill:#222221;" d="M316.032,470.736l2.702-2.554h2.368l-3.479,3.375l3.501,3.797h-2.376
				l-2.716-2.901v2.901H314.1v-10.658h1.932V470.736z"/>
		</g>
		<g>
			<path style="fill:#222221;" d="M184.412,475.289v-1.055c-0.527,0.718-1.391,1.23-2.388,1.23c-1.846,0-3.149-1.406-3.149-3.706
				c0-2.256,1.289-3.721,3.149-3.721c0.952,0,1.816,0.469,2.388,1.245v-3.765h1.099v9.77H184.412z M184.412,473.37v-3.208
				c-0.395-0.615-1.245-1.143-2.124-1.143c-1.421,0-2.27,1.172-2.27,2.739c0,1.567,0.85,2.724,2.27,2.724
				C183.168,474.483,184.017,473.986,184.412,473.37z"/>
			<path style="fill:#222221;" d="M186.932,471.744c0-2.051,1.465-3.706,3.486-3.706c2.139,0,3.398,1.67,3.398,3.794v0.279h-5.727
				c0.088,1.333,1.025,2.446,2.549,2.446c0.805,0,1.626-0.322,2.182-0.894l0.527,0.718c-0.703,0.703-1.655,1.084-2.812,1.084
				C188.44,475.465,186.932,473.956,186.932,471.744z M190.403,468.947c-1.509,0-2.256,1.274-2.314,2.358h4.643
				C192.718,470.25,192.015,468.947,190.403,468.947z"/>
			<path style="fill:#222221;" d="M194.607,474.351l0.571-0.791c0.469,0.542,1.362,1.011,2.329,1.011c1.084,0,1.67-0.513,1.67-1.216
				c0-1.714-4.38-0.659-4.38-3.281c0-1.098,0.952-2.036,2.636-2.036c1.201,0,2.051,0.454,2.622,1.026l-0.513,0.762
				c-0.424-0.513-1.201-0.894-2.109-0.894c-0.967,0-1.567,0.483-1.567,1.113c0,1.552,4.38,0.527,4.38,3.281
				c0,1.187-0.952,2.138-2.783,2.138C196.306,475.465,195.325,475.113,194.607,474.351z"/>
			<path style="fill:#222221;" d="M201.477,466.471c0-0.41,0.337-0.747,0.732-0.747c0.41,0,0.747,0.337,0.747,0.747
				c0,0.41-0.337,0.732-0.747,0.732C201.814,467.203,201.477,466.881,201.477,466.471z M201.667,475.289v-7.075h1.099v7.075H201.667
				z"/>
			<path style="fill:#222221;" d="M204.582,477.105l0.556-0.82c0.586,0.703,1.289,0.967,2.3,0.967c1.172,0,2.27-0.571,2.27-2.124
				v-1.011c-0.513,0.718-1.377,1.26-2.373,1.26c-1.845,0-3.149-1.377-3.149-3.662c0-2.27,1.289-3.677,3.149-3.677
				c0.952,0,1.802,0.469,2.373,1.245v-1.069h1.098v6.87c0,2.344-1.641,3.076-3.369,3.076
				C206.237,478.16,205.417,477.926,204.582,477.105z M209.709,473.253v-3.091c-0.381-0.615-1.23-1.143-2.109-1.143
				c-1.421,0-2.27,1.128-2.27,2.695c0,1.553,0.849,2.695,2.27,2.695C208.478,474.41,209.328,473.868,209.709,473.253z"/>
			<path style="fill:#222221;" d="M217.413,475.289v-4.629c0-1.245-0.63-1.641-1.582-1.641c-0.865,0-1.685,0.527-2.095,1.099v5.17
				h-1.099v-7.075h1.099v1.025c0.498-0.586,1.465-1.201,2.519-1.201c1.48,0,2.256,0.747,2.256,2.285v4.966H217.413z"/>
			<path style="fill:#222221;" d="M219.932,471.744c0-2.051,1.465-3.706,3.486-3.706c2.139,0,3.398,1.67,3.398,3.794v0.279h-5.727
				c0.088,1.333,1.025,2.446,2.549,2.446c0.806,0,1.626-0.322,2.183-0.894l0.527,0.718c-0.703,0.703-1.655,1.084-2.812,1.084
				C221.441,475.465,219.932,473.956,219.932,471.744z M223.404,468.947c-1.509,0-2.256,1.274-2.314,2.358h4.643
				C225.718,470.25,225.015,468.947,223.404,468.947z"/>
			<path style="fill:#222221;" d="M233.35,475.289v-1.055c-0.527,0.718-1.392,1.23-2.388,1.23c-1.846,0-3.149-1.406-3.149-3.706
				c0-2.256,1.289-3.721,3.149-3.721c0.952,0,1.817,0.469,2.388,1.245v-3.765h1.098v9.77H233.35z M233.35,473.37v-3.208
				c-0.396-0.615-1.245-1.143-2.124-1.143c-1.421,0-2.27,1.172-2.27,2.739c0,1.567,0.849,2.724,2.27,2.724
				C232.105,474.483,232.954,473.986,233.35,473.37z"/>
			<path style="fill:#222221;" d="M239.692,475.289v-9.77h1.098v3.765c0.572-0.776,1.421-1.245,2.388-1.245
				c1.845,0,3.149,1.465,3.149,3.721c0,2.299-1.304,3.706-3.149,3.706c-0.996,0-1.86-0.513-2.388-1.23v1.055H239.692z
				 M242.9,474.483c1.436,0,2.285-1.157,2.285-2.724c0-1.568-0.85-2.739-2.285-2.739c-0.864,0-1.728,0.527-2.109,1.143v3.208
				C241.171,473.986,242.036,474.483,242.9,474.483z"/>
			<path style="fill:#222221;" d="M247.528,477.061c0.161,0.073,0.425,0.117,0.601,0.117c0.483,0,0.805-0.161,1.055-0.747
				l0.469-1.069l-2.959-7.148h1.187l2.358,5.8l2.344-5.8h1.201l-3.545,8.51c-0.425,1.025-1.143,1.421-2.08,1.435
				c-0.234,0-0.601-0.044-0.805-0.103L247.528,477.061z"/>
		</g>
	</g>
</g>
</svg>
