<?xml version="1.0" encoding="UTF-8"?>
<svg version="1.1" xmlns="http://www.w3.org/2000/svg" width="1587" height="2245">
<path d="M0 0 C523.71 0 1047.42 0 1587 0 C1587 740.85 1587 1481.7 1587 2245 C1063.29 2245 539.58 2245 0 2245 C0 1504.15 0 763.3 0 0 Z " fill="#FEFEFE" transform="translate(0,0)"/>
<path d="M0 0 C1.20931671 -0.00205263 2.41863341 -0.00410527 3.66459608 -0.0062201 C7.02838024 -0.01090782 10.39211104 -0.01111541 13.75589452 -0.00944251 C17.41294465 -0.00871117 21.06998761 -0.01373494 24.72703469 -0.01801753 C31.98365129 -0.02559748 39.24026054 -0.02779059 46.49688069 -0.02834659 C55.18778679 -0.02926024 63.87868609 -0.03592789 72.56958926 -0.04269341 C93.57699437 -0.05875639 114.58439875 -0.06465721 135.59180889 -0.06944216 C145.53049657 -0.071778 155.46918367 -0.07538066 165.40787091 -0.07913754 C199.43093018 -0.09197386 233.45398914 -0.10269254 267.47705078 -0.10614014 C269.61301677 -0.10636177 271.74898275 -0.10658355 273.88494874 -0.10680549 C276.02607183 -0.10702613 278.16719493 -0.10724661 280.30831802 -0.10746694 C284.60376986 -0.10790949 288.8992217 -0.1083566 293.19467354 -0.10880661 C294.2596966 -0.108916 295.32471966 -0.10902539 296.42201615 -0.1091381 C330.94888481 -0.11276805 365.47573246 -0.12868534 400.00259308 -0.15199697 C436.50840627 -0.17659966 473.01420746 -0.1903132 509.52002919 -0.19150805 C513.52850159 -0.19167951 517.53697399 -0.19189494 521.5454464 -0.19214249 C522.53244122 -0.19219826 523.51943604 -0.19225402 524.5363398 -0.19231148 C540.41254997 -0.19346161 556.28873858 -0.20448045 572.16494147 -0.21902954 C588.12744992 -0.23340459 604.08993076 -0.23662585 620.05244391 -0.22858956 C629.53172221 -0.22413792 639.01091129 -0.22797529 648.49017785 -0.24382807 C654.82900637 -0.253597 661.16777257 -0.25238158 667.50660056 -0.24239184 C671.11387148 -0.23701356 674.72097141 -0.23624495 678.32822798 -0.24890056 C712.89219178 -0.36252848 712.89219178 -0.36252848 728.76498604 6.75642776 C729.55638985 7.10197708 730.34779366 7.4475264 731.1631794 7.80354691 C742.95098106 13.11490065 752.85021113 20.11823109 762.13998604 29.13142776 C762.82447823 29.74244339 763.50897041 30.35345901 764.21420479 30.98299026 C779.24227268 44.8595952 789.5709118 68.01771348 791.13998604 88.13142776 C791.27745239 92.19663231 791.27935917 96.25832823 791.27369881 100.3255806 C791.27709714 102.13032872 791.27709714 102.13032872 791.28056413 103.9715364 C791.28577726 107.28958659 791.28655281 110.60758234 791.28536975 113.92563272 C791.28516483 117.51267266 791.29069319 121.09970467 791.29542732 124.68674088 C791.30371465 131.70637717 791.30648129 138.72600507 791.3070397 145.74564585 C791.30751577 151.45470317 791.30957504 157.16375773 791.31274033 162.87281418 C791.32154163 179.0783595 791.32616052 195.28389822 791.32540985 211.48944595 C791.32534992 212.79843545 791.32534992 212.79843545 791.32528877 214.13386917 C791.32522745 215.44446688 791.32522745 215.44446688 791.32516489 216.78154132 C791.32475856 230.93712443 791.33432624 245.09268094 791.34842714 259.24825636 C791.36280969 273.80203566 791.36969629 288.35580199 791.36883336 302.90958858 C791.36850204 311.07281287 791.37122052 319.23600927 791.38201141 327.39922714 C791.39114116 334.35003616 791.39327141 341.30080461 791.38650199 348.25161704 C791.38324925 351.79348454 791.38313471 355.33527434 791.39185524 358.87713432 C791.4012383 362.72790511 791.39491176 366.57856396 791.3872242 370.42934036 C791.39236776 371.53316409 791.39751132 372.63698782 791.40281075 373.77426076 C791.28139533 401.4413896 779.60764152 424.28397081 760.70248604 443.88142776 C740.23556919 463.8112294 713.82023733 471.30307188 685.86586761 471.26564884 C684.6603774 471.26800107 683.45488718 471.2703533 682.21286696 471.27277681 C678.87846356 471.27827154 675.54411303 471.27934192 672.20970882 471.2784994 C668.57755297 471.27866976 664.94540557 471.2845854 661.313254 471.28974026 C654.11463836 471.29904292 646.91602886 471.30298435 639.71740796 471.30525923 C631.09269746 471.30822732 622.46799507 471.31692815 613.84328884 471.32567351 C593.00133518 471.34649204 572.15938013 471.35698286 551.3174185 471.36580312 C541.45552135 471.37001255 531.5936248 471.37523408 521.73172816 471.38048765 C487.96453781 471.39837386 454.19734727 471.41337011 420.43015289 471.42080784 C418.31133695 471.42128259 416.192521 471.42175848 414.07370505 471.4222355 C413.02298372 471.42247188 411.97226238 471.42270825 410.88970101 471.42295179 C405.56639107 471.42415297 400.24308113 471.42536843 394.91977119 471.42659378 C393.86335389 471.42683393 392.80693659 471.42707408 391.71850664 471.42732151 C357.46087233 471.43521583 323.20327263 471.45865245 288.94565344 471.49114972 C252.71446663 471.52545635 216.48330008 471.54515963 180.25209677 471.54845208 C176.27401836 471.54886961 172.29593996 471.54934917 168.31786156 471.54987526 C167.33836849 471.54999845 166.35887542 471.55012164 165.34970074 471.55024857 C149.59643979 471.55257927 133.84321911 471.56823163 118.08997251 471.58871711 C102.25341054 471.60898412 86.41689687 471.6144482 70.58032434 471.60494647 C61.17653851 471.59973535 51.77291363 471.60559072 42.36915101 471.62748114 C36.08078842 471.64101112 29.79253634 471.63989288 23.5041726 471.62707919 C19.92575504 471.62019726 16.34764469 471.61946184 12.76925485 471.63663927 C-1.35454591 471.70031034 -14.36655255 471.62177836 -27.86001396 467.13142776 C-29.85967635 466.56772876 -31.85962067 466.00502752 -33.86001396 465.44392776 C-46.19605358 461.14729356 -57.24450372 453.87854217 -66.86001396 445.13142776 C-67.55224052 444.52041214 -68.24446709 443.90939651 -68.95767021 443.27986526 C-85.87752863 427.4700572 -98.06629913 402.8621994 -98.95757651 379.58322418 C-99.00062839 376.48059395 -99.01252083 373.37924271 -99.01391411 370.27630997 C-99.01829636 369.08528705 -99.02267862 367.89426413 -99.02719367 366.6671496 C-99.03821559 363.37336403 -99.04479278 360.07962561 -99.04937482 356.78582847 C-99.05535556 353.22788729 -99.06695947 349.66996334 -99.07766533 346.11203384 C-99.10213825 337.52300638 -99.11681172 328.93397325 -99.1297254 320.34492168 C-99.13344194 317.91499687 -99.13741481 315.48507262 -99.14147806 313.05514836 C-99.1667261 297.9360567 -99.1887594 282.81696403 -99.20120621 267.69785595 C-99.20413548 264.19906931 -99.2070972 260.70028269 -99.21011162 257.20149612 C-99.21085767 256.33198472 -99.21160372 255.46247332 -99.21237238 254.56661309 C-99.2250005 240.51069679 -99.25819175 226.45490772 -99.29991345 212.39905076 C-99.34248583 197.93682342 -99.36591906 183.47466091 -99.37112677 169.01237112 C-99.37452428 160.90520502 -99.38608107 152.79823749 -99.41922951 144.6911335 C-99.44744281 137.78000928 -99.45813745 130.86912436 -99.44703405 123.95794707 C-99.44190049 120.44114381 -99.44438009 116.92483991 -99.46949959 113.40811157 C-99.60665599 90.51609304 -97.5927514 70.13449818 -85.86001396 50.13142776 C-85.30442802 49.1401387 -84.74884209 48.14884964 -84.17642021 47.12752151 C-79.70454422 39.58860348 -73.98004291 33.33863662 -67.86001396 27.13142776 C-67.14071709 26.39924026 -66.42142021 25.66705276 -65.68032646 24.91267776 C-48.27255294 8.35887049 -23.65425485 -0.03714642 0 0 Z " fill="#1C4980" transform="translate(536.860013961792,436.8685722351074)"/>
</svg>
