<svg id="visual" viewBox="0 0 900 600" width="900" height="600" xmlns="http://www.w3.org/2000/svg" xmlns:xlink="http://www.w3.org/1999/xlink" version="1.1"><rect x="0" y="0" width="900" height="600" fill="#F8F9FD"></rect><path d="M0 447L13.7 455.3C27.3 463.7 54.7 480.3 82 490.8C109.3 501.3 136.7 505.7 163.8 504.8C191 504 218 498 245.2 496.8C272.3 495.7 299.7 499.3 327 497.2C354.3 495 381.7 487 409 478.5C436.3 470 463.7 461 491 455.8C518.3 450.7 545.7 449.3 573 455.2C600.3 461 627.7 474 654.8 483.2C682 492.3 709 497.7 736.2 495.5C763.3 493.3 790.7 483.7 818 476.8C845.3 470 872.7 466 886.3 464L900 462L900 601L886.3 601C872.7 601 845.3 601 818 601C790.7 601 763.3 601 736.2 601C709 601 682 601 654.8 601C627.7 601 600.3 601 573 601C545.7 601 518.3 601 491 601C463.7 601 436.3 601 409 601C381.7 601 354.3 601 327 601C299.7 601 272.3 601 245.2 601C218 601 191 601 163.8 601C136.7 601 109.3 601 82 601C54.7 601 27.3 601 13.7 601L0 601Z" fill="#E3EBF8" stroke-linecap="round" stroke-linejoin="miter"></path></svg>